<?xml version="1.0" encoding="UTF-8" standalone="no"?>
<!-- Created with Inkscape (http://www.inkscape.org/) -->

<svg
   xmlns:dc="http://purl.org/dc/elements/1.1/"
   xmlns:cc="http://creativecommons.org/ns#"
   xmlns:rdf="http://www.w3.org/1999/02/22-rdf-syntax-ns#"
   xmlns:svg="http://www.w3.org/2000/svg"
   xmlns="http://www.w3.org/2000/svg"
   xmlns:sodipodi="http://sodipodi.sourceforge.net/DTD/sodipodi-0.dtd"
   xmlns:inkscape="http://www.inkscape.org/namespaces/inkscape"
   width="256"
   height="256"
   id="svg2989"
   version="1.1"
   inkscape:version="0.48.4 r9939"
   sodipodi:docname="LevelObjectsShadows.svg"
   inkscape:export-filename="C:\Users\Anthony\Desktop\Projects\SparkHouse\SpaceRace\Assets\Sprites\Obstacles\LevelObjectsShadows.png"
   inkscape:export-xdpi="360"
   inkscape:export-ydpi="360">
  <defs
     id="defs2991" />
  <sodipodi:namedview
     id="base"
     pagecolor="#ffffff"
     bordercolor="#666666"
     borderopacity="1.0"
     inkscape:pageopacity="0.0"
     inkscape:pageshadow="2"
     inkscape:zoom="1.34456"
     inkscape:cx="4.3933642"
     inkscape:cy="142.24516"
     inkscape:document-units="px"
     inkscape:current-layer="layer1"
     showgrid="false"
     units="px"
     inkscape:window-width="1600"
     inkscape:window-height="837"
     inkscape:window-x="-8"
     inkscape:window-y="-8"
     inkscape:window-maximized="1" />
  <metadata
     id="metadata2994">
    <rdf:RDF>
      <cc:Work
         rdf:about="">
        <dc:format>image/svg+xml</dc:format>
        <dc:type
           rdf:resource="http://purl.org/dc/dcmitype/StillImage" />
        <dc:title></dc:title>
      </cc:Work>
    </rdf:RDF>
  </metadata>
  <g
     inkscape:groupmode="layer"
     id="layer2"
     inkscape:label="Layer"
     style="display:none"
     sodipodi:insensitive="true">
    <rect
       style="fill:#eec469;fill-opacity:1;fill-rule:nonzero;stroke:none"
       id="rect3305"
       width="568.95935"
       height="468.55478"
       x="-159.15987"
       y="-127.02493" />
  </g>
  <g
     inkscape:label="Layer 1"
     inkscape:groupmode="layer"
     id="layer1"
     transform="translate(0,-796.3598)"
     style="display:inline">
    <path
       sodipodi:type="inkscape:offset"
       inkscape:radius="5.4792852"
       inkscape:original="M -232.28125 304.875 L -232.28125 337.3125 L -199.8125 337.3125 L -199.8125 304.875 L -232.28125 304.875 z "
       style="fill:#ffffff;fill-opacity:1;fill-rule:nonzero;stroke:none"
       id="path6828"
       d="M -232.28125,299.40625 A 5.4798332,5.4798332 0 0 0 -237.75,304.875 l 0,32.4375 a 5.4798332,5.4798332 0 0 0 5.46875,5.46875 l 32.46875,0 a 5.4798332,5.4798332 0 0 0 5.46875,-5.46875 l 0,-32.4375 a 5.4798332,5.4798332 0 0 0 -5.46875,-5.46875 l -32.46875,0 z"
       transform="matrix(0.30468888,0,0,0.30468888,198.75999,777.25897)" />
    <path
       sodipodi:type="inkscape:offset"
       inkscape:radius="5.4208288"
       inkscape:original="M -328.28125 279.46875 L -328.28125 344.375 L -263.375 344.375 L -263.375 279.46875 L -328.28125 279.46875 z "
       style="fill:#ffffff;fill-opacity:1;fill-rule:nonzero;stroke:none"
       id="path6808"
       d="m -328.8125,274.0625 a 5.4213709,5.4213709 0 0 0 -4.875,5.40625 l 0,64.90625 a 5.4213709,5.4213709 0 0 0 5.40625,5.40625 l 64.90625,0 a 5.4213709,5.4213709 0 0 0 5.40625,-5.40625 l 0,-64.90625 a 5.4213709,5.4213709 0 0 0 -5.40625,-5.40625 l -64.90625,0 a 5.4213709,5.4213709 0 0 0 -0.53125,0 z"
       transform="matrix(0.30468888,0,0,0.30468888,198.75999,777.25897)"
       inkscape:export-filename="C:\Users\Anthony\Desktop\Projects\SparkHouse\SpaceRace\Assets\Sprites\NewSprites\SquareShadow.png"
       inkscape:export-xdpi="2048"
       inkscape:export-ydpi="2048" />
    <path
       sodipodi:type="arc"
       style="fill:#ffffff;fill-opacity:1;fill-rule:nonzero;stroke:none"
       id="path6400-8"
       sodipodi:cx="-313.9744"
       sodipodi:cy="-397.91461"
       sodipodi:rx="11.763206"
       sodipodi:ry="11.763191"
       d="m -302.21119,-397.91461 c 0,6.49663 -5.26657,11.76319 -11.76321,11.76319 -6.49663,0 -11.7632,-5.26656 -11.7632,-11.76319 0,-6.49663 5.26657,-11.76319 11.7632,-11.76319 6.49664,0 11.76321,5.26656 11.76321,11.76319 z"
       transform="matrix(0.54807922,0,0,0.54807922,302.75572,1063.3347)" />
    <path
       sodipodi:type="arc"
       style="fill:#ffffff;fill-opacity:1;fill-rule:nonzero;stroke:none"
       id="path6396-2"
       sodipodi:cx="-365.0386"
       sodipodi:cy="-410.32828"
       sodipodi:rx="23.526413"
       sodipodi:ry="2.1387649"
       d="m -341.51219,-410.32828 c 0,1.18121 -10.53314,2.13877 -23.52641,2.13877 -12.99328,0 -23.52642,-0.95756 -23.52642,-2.13877 0,-1.1812 10.53314,-2.13876 23.52642,-2.13876 12.99327,0 23.52641,0.95756 23.52641,2.13876 z"
       transform="matrix(0.4891072,0,0,5.2933994,288.43679,3013.3585)"
       inkscape:export-filename="C:\Users\Anthony\Desktop\Projects\SparkHouse\SpaceRace\Assets\Sprites\NewSprites\CircleShadow.png"
       inkscape:export-xdpi="2047.9202"
       inkscape:export-ydpi="2047.9202" />
    <path
       sodipodi:type="inkscape:offset"
       inkscape:radius="11.520357"
       inkscape:original="M -11.15625 -673.5625 L -32.5 -636.59375 L -53.84375 -599.625 L -11.15625 -599.625 L 31.53125 -599.625 L 10.1875 -636.59375 L -11.15625 -673.5625 z "
       style="fill:#ffffff;fill-opacity:1;fill-rule:nonzero;stroke:none"
       id="path6731"
       d="m -11.78125,-685.0625 a 11.521509,11.521509 0 0 0 -9.34375,5.75 l -21.34375,36.96875 -21.34375,36.96875 a 11.521509,11.521509 0 0 0 9.96875,17.28125 l 42.6875,0 42.6875,0 A 11.521509,11.521509 0 0 0 41.5,-605.375 L 20.15625,-642.34375 -1.1875,-679.3125 a 11.521509,11.521509 0 0 0 -10.59375,-5.75 z"
       transform="matrix(0.14369159,0,0,0.14369159,211.72711,991.46761)" />
    <path
       sodipodi:type="inkscape:offset"
       inkscape:radius="6.3431511"
       inkscape:original="M -11.15625 -673.5625 L -32.5 -636.59375 L -53.84375 -599.625 L -11.15625 -599.625 L 31.53125 -599.625 L 10.1875 -636.59375 L -11.15625 -673.5625 z "
       style="fill:#ffffff;fill-opacity:1;fill-rule:nonzero;stroke:none"
       id="path6711"
       d="m -11.5,-679.90625 a 6.3437854,6.3437854 0 0 0 -5.15625,3.1875 L -38,-639.75 l -21.34375,36.96875 a 6.3437854,6.3437854 0 0 0 5.5,9.5 l 42.6875,0 42.6875,0 a 6.3437854,6.3437854 0 0 0 5.5,-9.5 L 15.6875,-639.75 -5.65625,-676.71875 a 6.3437854,6.3437854 0 0 0 -5.84375,-3.1875 z"
       transform="matrix(0.25517806,0,0,0.25517806,185.48872,1059.3532)"
       inkscape:export-filename="C:\Users\Anthony\Desktop\Projects\SparkHouse\SpaceRace\Assets\Sprites\NewSprites\TriangleShadow.png"
       inkscape:export-xdpi="2048"
       inkscape:export-ydpi="2048" />
    <path
       sodipodi:type="inkscape:offset"
       inkscape:radius="5.6918702"
       inkscape:original="M 35.46875 300.53125 L 35.46875 333 L 67.90625 333 L 100.375 333 L 100.375 300.53125 L 67.90625 300.53125 L 35.46875 300.53125 z "
       style="fill:#ffffff;fill-opacity:1;fill-rule:nonzero;stroke:none"
       id="path6691"
       d="m 35.46875,294.84375 a 5.6924394,5.6924394 0 0 0 -5.6875,5.6875 l 0,32.46875 a 5.6924394,5.6924394 0 0 0 5.6875,5.6875 l 32.4375,0 32.46875,0 A 5.6924394,5.6924394 0 0 0 106.0625,333 l 0,-32.46875 a 5.6924394,5.6924394 0 0 0 -5.6875,-5.6875 l -32.46875,0 -32.4375,0 z"
       transform="matrix(0.30468888,0,0,0.30468888,129.59238,804.77726)" />
    <path
       sodipodi:type="inkscape:offset"
       inkscape:radius="-0.75891602"
       inkscape:original="M -124.1875 284.4375 A 6.4514317 6.4514317 0 0 0 -130.625 290.875 L -130.625 355.78125 A 6.4514317 6.4514317 0 0 0 -124.1875 362.21875 L -59.28125 362.21875 L 5.625 362.21875 A 6.4514317 6.4514317 0 0 0 12.0625 355.78125 L 12.0625 290.875 A 6.4514317 6.4514317 0 0 0 5.625 284.4375 L -59.28125 284.4375 L -124.1875 284.4375 z "
       style="fill:#ffffff;fill-opacity:1;fill-rule:nonzero;stroke:none"
       id="path6671"
       d="m -124.1875,285.1875 c -0.11765,2.5e-4 -0.16375,0.0252 -0.28125,0.0312 -0.1175,0.006 -0.16418,-0.0118 -0.28125,0 -0.11707,0.0118 -0.1649,0.0138 -0.28125,0.0312 -0.11635,0.0175 -0.13464,0.0394 -0.25,0.0625 -0.11536,0.0231 -0.16716,0.0337 -0.28125,0.0625 -0.11409,0.0288 -0.16871,0.0282 -0.28125,0.0625 -0.11254,0.0343 -0.13927,0.054 -0.25,0.0937 -0.11073,0.0398 -0.14135,0.0486 -0.25,0.0937 -0.10865,0.0451 -0.17494,0.0746 -0.28125,0.125 -0.10631,0.0504 -0.14628,0.0695 -0.25,0.125 -0.10372,0.0555 -0.11787,0.0645 -0.21875,0.125 -0.10088,0.0605 -0.15221,0.0908 -0.25,0.15625 -0.0978,0.0654 -0.12428,0.0861 -0.21875,0.15625 -0.0945,0.0701 -0.12782,0.11284 -0.21875,0.1875 -0.0909,0.0747 -0.13158,0.0772 -0.21875,0.15625 -0.0872,0.079 -0.10431,0.13556 -0.1875,0.21875 -0.0832,0.0832 -0.13973,0.10033 -0.21875,0.1875 -0.079,0.0872 -0.0816,0.12782 -0.15625,0.21875 -0.0747,0.0909 -0.11737,0.12428 -0.1875,0.21875 -0.0701,0.0945 -0.0908,0.12096 -0.15625,0.21875 -0.0654,0.0978 -0.0957,0.14912 -0.15625,0.25 -0.0606,0.10088 -0.0694,0.11503 -0.125,0.21875 -0.0556,0.10372 -0.0746,0.14369 -0.125,0.25 -0.0504,0.10631 -0.0799,0.1726 -0.125,0.28125 -0.0451,0.10865 -0.054,0.13927 -0.0937,0.25 -0.0398,0.11073 -0.0594,0.13746 -0.0937,0.25 -0.0343,0.11254 -0.0337,0.16716 -0.0625,0.28125 -0.0288,0.11409 -0.0394,0.16589 -0.0625,0.28125 -0.0231,0.11536 -0.045,0.13365 -0.0625,0.25 -0.0175,0.11635 -0.0195,0.16418 -0.0312,0.28125 -0.0118,0.11707 0.006,0.16375 0,0.28125 -0.006,0.1175 -0.031,0.1636 -0.0312,0.28125 l 0,64.90625 c 2.5e-4,0.11765 0.0252,0.16375 0.0312,0.28125 0.006,0.1175 -0.0118,0.16418 0,0.28125 0.0118,0.11707 0.0138,0.1649 0.0312,0.28125 0.0175,0.11635 0.0394,0.13464 0.0625,0.25 0.0231,0.11536 0.0337,0.16716 0.0625,0.28125 0.0288,0.11409 0.0282,0.16871 0.0625,0.28125 0.0343,0.11254 0.054,0.13927 0.0937,0.25 0.0398,0.11073 0.0486,0.14135 0.0937,0.25 0.0451,0.10865 0.0746,0.17494 0.125,0.28125 0.0504,0.10631 0.0694,0.14628 0.125,0.25 0.0556,0.10372 0.0644,0.11787 0.125,0.21875 0.0606,0.10088 0.0908,0.15221 0.15625,0.25 0.0654,0.0978 0.0861,0.12428 0.15625,0.21875 0.0701,0.0945 0.11284,0.12782 0.1875,0.21875 0.0747,0.0909 0.0772,0.13158 0.15625,0.21875 0.079,0.0872 0.13556,0.10431 0.21875,0.1875 0.0832,0.0832 0.10033,0.13973 0.1875,0.21875 0.0872,0.079 0.12782,0.0816 0.21875,0.15625 0.0909,0.0747 0.12428,0.11737 0.21875,0.1875 0.0945,0.0701 0.12096,0.0908 0.21875,0.15625 0.0978,0.0654 0.14912,0.0957 0.25,0.15625 0.10088,0.0605 0.11503,0.0695 0.21875,0.125 0.10372,0.0555 0.14369,0.0746 0.25,0.125 0.10631,0.0504 0.1726,0.0799 0.28125,0.125 0.10865,0.0451 0.13927,0.054 0.25,0.0937 0.11073,0.0398 0.13746,0.0594 0.25,0.0937 0.11254,0.0343 0.16716,0.0337 0.28125,0.0625 0.11409,0.0288 0.16589,0.0394 0.28125,0.0625 0.11536,0.0231 0.13365,0.045 0.25,0.0625 0.11635,0.0175 0.16418,0.0195 0.28125,0.0312 0.11707,0.0118 0.16375,-0.006 0.28125,0 0.1175,0.006 0.1636,0.031 0.28125,0.0312 l 64.90625,0 64.90625,0 c 0.1176547,-2.5e-4 0.1637486,-0.0252 0.28125,-0.0312 0.1175014,-0.006 0.1641835,0.0118 0.28125,0 0.1170665,-0.0118 0.1648989,-0.0138 0.28125,-0.0312 0.1163511,-0.0175 0.134643,-0.0394 0.25,-0.0625 0.115357,-0.0231 0.1671635,-0.0337 0.28125,-0.0625 0.1140865,-0.0288 0.1687073,-0.0282 0.28125,-0.0625 0.1125427,-0.0343 0.1392708,-0.054 0.25,-0.0937 0.1107292,-0.0398 0.1413496,-0.0486 0.25,-0.0937 0.1086504,-0.0451 0.1749387,-0.0746 0.28125,-0.125 0.1063113,-0.0504 0.1462825,-0.0695 0.25,-0.125 0.1037175,-0.0555 0.1178747,-0.0645 0.21875,-0.125 0.1008753,-0.0605 0.1522087,-0.0908 0.25,-0.15625 0.097791,-0.0654 0.124277,-0.0861 0.21875,-0.15625 0.094473,-0.0701 0.1278216,-0.11284 0.21875,-0.1875 0.090928,-0.0747 0.131584,-0.0772 0.21875,-0.15625 0.087166,-0.079 0.1043054,-0.13556 0.1875,-0.21875 0.083195,-0.0832 0.139726,-0.10033 0.21875,-0.1875 0.079024,-0.0872 0.081586,-0.12782 0.15625,-0.21875 0.07466,-0.0909 0.117375,-0.12428 0.1875,-0.21875 0.07013,-0.0945 0.09083,-0.12096 0.15625,-0.21875 0.06542,-0.0978 0.09569,-0.14912 0.15625,-0.25 0.06056,-0.10088 0.06945,-0.11503 0.125,-0.21875 0.05555,-0.10372 0.0746,-0.14369 0.125,-0.25 0.0504,-0.10631 0.07986,-0.1726 0.125,-0.28125 0.04514,-0.10865 0.05398,-0.13927 0.09375,-0.25 0.03977,-0.11073 0.05945,-0.13746 0.09375,-0.25 0.0343,-0.11254 0.03374,-0.16716 0.0625,-0.28125 0.02876,-0.11409 0.03936,-0.16589 0.0625,-0.28125 0.02314,-0.11536 0.04503,-0.13365 0.0625,-0.25 0.01747,-0.11635 0.0195,-0.16418 0.03125,-0.28125 0.01175,-0.11707 -0.006,-0.16375 0,-0.28125 0.006,-0.1175 0.031,-0.1636 0.03125,-0.28125 l 0,-64.90625 c -2.54e-4,-0.11765 -0.02524,-0.16375 -0.03125,-0.28125 -0.006,-0.1175 0.01175,-0.16418 0,-0.28125 -0.01175,-0.11707 -0.01378,-0.1649 -0.03125,-0.28125 -0.01747,-0.11635 -0.03936,-0.13464 -0.0625,-0.25 -0.02314,-0.11536 -0.03374,-0.16716 -0.0625,-0.28125 -0.02876,-0.11409 -0.0282,-0.16871 -0.0625,-0.28125 -0.0343,-0.11254 -0.05398,-0.13927 -0.09375,-0.25 -0.03977,-0.11073 -0.04861,-0.14135 -0.09375,-0.25 -0.04514,-0.10865 -0.0746,-0.17494 -0.125,-0.28125 -0.0504,-0.10631 -0.06945,-0.14628 -0.125,-0.25 -0.05555,-0.10372 -0.06444,-0.11787 -0.125,-0.21875 -0.06056,-0.10088 -0.09083,-0.15221 -0.15625,-0.25 -0.06542,-0.0978 -0.08612,-0.12428 -0.15625,-0.21875 -0.07013,-0.0945 -0.112836,-0.12782 -0.1875,-0.21875 -0.074664,-0.0909 -0.077226,-0.13158 -0.15625,-0.21875 C 9.764726,286.97533 9.7081946,286.95819 9.625,286.875 9.5418054,286.79181 9.524666,286.73527 9.4375,286.65625 9.350334,286.57723 9.3096784,286.57466 9.21875,286.5 9.1278216,286.42534 9.094473,286.38263 9,286.3125 c -0.094473,-0.0701 -0.1209587,-0.0908 -0.21875,-0.15625 -0.097791,-0.0654 -0.1491247,-0.0957 -0.25,-0.15625 -0.1008753,-0.0605 -0.1150325,-0.0695 -0.21875,-0.125 -0.1037175,-0.0555 -0.1436887,-0.0746 -0.25,-0.125 -0.1063113,-0.0504 -0.1725996,-0.0799 -0.28125,-0.125 -0.1086504,-0.0451 -0.1392708,-0.054 -0.25,-0.0937 -0.1107292,-0.0398 -0.1374573,-0.0594 -0.25,-0.0937 C 7.1687073,285.40319 7.1140865,285.40376 7,285.375 c -0.1140865,-0.0288 -0.165893,-0.0394 -0.28125,-0.0625 -0.115357,-0.0231 -0.1336489,-0.045 -0.25,-0.0625 -0.1163511,-0.0175 -0.1641835,-0.0195 -0.28125,-0.0312 -0.1170665,-0.0118 -0.1637486,0.006 -0.28125,0 -0.1175014,-0.006 -0.1635953,-0.031 -0.28125,-0.0312 l -64.90625,0 -64.90625,0 z"
       transform="matrix(0.30468888,0,0,0.30468888,129.59238,804.77726)"
       inkscape:export-filename="C:\Users\Anthony\Desktop\Projects\SparkHouse\SpaceRace\Assets\Sprites\NewSprites\RectangleShadow.png"
       inkscape:export-xdpi="2048"
       inkscape:export-ydpi="2048" />
    <path
       sodipodi:type="inkscape:offset"
       inkscape:radius="4.3117981"
       inkscape:original="M 72.875 -191.0625 C 49.084294 -191.0625 70.989103 -165.10336 59.09375 -144.5 C 47.198397 -123.89665 13.792147 -129.8846 25.6875 -109.28125 C 37.582853 -88.677895 49.084294 -120.625 72.875 -120.625 C 96.665705 -120.625 108.1984 -88.677895 120.09375 -109.28125 C 131.9891 -129.88461 98.551603 -123.89664 86.65625 -144.5 C 74.760898 -165.10336 96.665705 -191.0625 72.875 -191.0625 z "
       style="fill:#ffffff;fill-opacity:1;fill-rule:nonzero;stroke:none"
       id="path6593"
       d="m 72.875,-195.375 c -3.365905,0 -6.221586,0.44397 -8.6875,1.53125 -2.465914,1.08728 -4.460755,2.95416 -5.625,5.125 -2.32849,4.34168 -1.841112,8.96841 -1.3125,13.6875 1.057224,9.43818 3.10759,19.7449 -1.875,28.375 -4.983346,8.63141 -14.929082,12.00799 -23.625,15.8125 -4.347959,1.90225 -8.595387,3.81159 -11.1875,8 -1.296056,2.0942 -1.917342,4.75906 -1.625,7.4375 0.292342,2.67844 1.348467,5.36659 3.03125,8.28125 1.682763,2.91463 3.451505,5.15798 5.625,6.75 2.173495,1.59202 4.819687,2.389509 7.28125,2.3125 4.923125,-0.154017 8.680963,-2.87046 12.5,-5.6875 7.638074,-5.63409 15.534665,-12.5625 25.5,-12.5625 9.965335,0 17.853857,6.92846 25.5,12.5625 3.82307,2.81702 7.6069,5.533589 12.53125,5.6875 2.46217,0.07696 5.10662,-0.720556 7.28125,-2.3125 2.17463,-1.59194 3.94203,-3.83501 5.625,-6.75 1.68299,-2.91502 2.74005,-5.60191 3.03125,-8.28125 0.2912,-2.67934 -0.32695,-5.3438 -1.625,-7.4375 -2.59611,-4.1874 -6.83588,-6.09792 -11.1875,-8 -8.70324,-3.80415 -18.673721,-7.18251 -23.65625,-15.8125 -4.982589,-8.6301 -2.932224,-18.93682 -1.875,-28.375 0.528612,-4.71909 1.01599,-9.34582 -1.3125,-13.6875 -1.164245,-2.17084 -3.159086,-4.03772 -5.625,-5.125 -2.465914,-1.08728 -5.321595,-1.53125 -8.6875,-1.53125 z"
       transform="matrix(0.35151725,0,0,0.35151725,149.38539,913.98037)"
       inkscape:export-filename="C:\Users\Anthony\Desktop\Projects\SparkHouse\SpaceRace\Assets\Sprites\NewSprites\GearThreeShadow.png"
       inkscape:export-xdpi="2048"
       inkscape:export-ydpi="2048" />
    <path
       sodipodi:type="inkscape:offset"
       inkscape:radius="4.9302993"
       inkscape:original="M -229.15625 -187.03125 C -241.32402 -188.05286 -236.99074 -160.48198 -256.75 -155.1875 C -279.33201 -149.13667 -289.18569 -184.02772 -300.875 -163.78125 C -312.56431 -143.53477 -277.42583 -152.42576 -271.375 -129.84375 C -265.32417 -107.26174 -300.18397 -97.408057 -279.9375 -85.71875 C -259.69102 -74.029443 -268.61326 -109.16792 -246.03125 -115.21875 C -223.44924 -121.26958 -213.59556 -86.378525 -201.90625 -106.625 C -190.21694 -126.87148 -225.35542 -117.98049 -231.40625 -140.5625 C -237.45708 -163.14451 -202.56603 -172.99819 -222.8125 -184.6875 C -225.34331 -186.14866 -227.418 -186.88531 -229.15625 -187.03125 z "
       style="fill:#ffffff;fill-opacity:1;fill-rule:nonzero;stroke:none"
       id="path6573"
       d="m -228.75,-191.9375 c -4.86004,-0.40805 -9.09156,2.73534 -11.21875,6.0625 -2.12719,3.32716 -3.30973,6.99466 -4.71875,10.59375 -2.81805,7.19818 -5.61779,13.27358 -13.34375,15.34375 -4.41471,1.18292 -7.7723,0.42683 -11.3125,-1.3125 -3.5402,-1.73933 -7.01714,-4.62566 -10.46875,-7.40625 -3.45161,-2.78059 -6.82084,-5.80505 -11.875,-6.375 -2.52708,-0.28497 -5.39919,0.40961 -7.6875,2 -2.28831,1.59039 -4.09181,3.85505 -5.78125,6.78125 -1.6895,2.9263 -2.73544,5.6292 -2.96875,8.40625 -0.23331,2.77705 0.58449,5.60944 2.09375,7.65625 3.01851,4.09362 7.33529,5.49209 11.46875,7.09375 4.13346,1.60166 8.3484,3.17674 11.625,5.375 3.2766,2.19826 5.62949,4.74119 6.8125,9.15625 1.18319,4.41573 0.42448,7.77214 -1.3125,11.3125 -1.73698,3.54036 -4.59816,7.01683 -7.375,10.46875 -2.77684,3.45192 -5.81015,6.821079 -6.375,11.875 -0.28243,2.52696 0.40907,5.400369 2,7.6875 1.59093,2.287131 3.85529,4.091944 6.78125,5.78125 2.92606,1.68936 5.62964,2.735366 8.40625,2.96875 2.77661,0.233384 5.61042,-0.614594 7.65625,-2.125 4.09167,-3.020813 5.49619,-7.304307 7.09375,-11.4375 1.59756,-4.133193 3.14855,-8.34935 5.34375,-11.625 2.1952,-3.27565 4.74147,-5.62956 9.15625,-6.8125 4.41471,-1.18292 7.7723,-0.42683 11.3125,1.3125 3.5402,1.73933 7.01714,4.62566 10.46875,7.40625 3.45161,2.780587 6.82084,5.805052 11.875,6.375 2.52708,0.284974 5.39919,-0.409612 7.6875,-2 2.28831,-1.590388 4.09181,-3.85505 5.78125,-6.78125 1.6895,-2.9263 2.73544,-5.6292 2.96875,-8.40625 0.23331,-2.77705 -0.58449,-5.60944 -2.09375,-7.65625 -3.01851,-4.09362 -7.33529,-5.49209 -11.46875,-7.09375 -4.13346,-1.60166 -8.3484,-3.17674 -11.625,-5.375 -3.2766,-2.19826 -5.62949,-4.74119 -6.8125,-9.15625 -1.18292,-4.41471 -0.42683,-7.7723 1.3125,-11.3125 1.73933,-3.5402 4.62566,-7.01714 7.40625,-10.46875 2.78059,-3.45161 5.80505,-6.82084 6.375,-11.875 0.28497,-2.52708 -0.40961,-5.39919 -2,-7.6875 -1.59039,-2.28831 -3.85505,-4.09181 -6.78125,-5.78125 -2.91983,-1.68576 -5.61558,-2.73445 -8.40625,-2.96875 z"
       transform="matrix(0.30468888,0,0,0.30468888,296.40756,903.16017)"
       inkscape:export-filename="C:\Users\Anthony\Desktop\Projects\SparkHouse\SpaceRace\Assets\Sprites\NewSprites\GearFourShadow.png"
       inkscape:export-xdpi="2048"
       inkscape:export-ydpi="2048" />
    <path
       sodipodi:type="inkscape:offset"
       inkscape:radius="5.2061639"
       inkscape:original="M -269.3125 -188.5 C -270.93314 -188.51835 -272.92485 -188.03887 -275.46875 -186.90625 C -295.81998 -177.8453 -262.95515 -166.44887 -274.09375 -147.15625 C -285.23235 -127.86363 -311.54735 -150.62391 -309.21875 -128.46875 C -306.89015 -106.31359 -285.87511 -134.02394 -270.96875 -117.46875 C -256.06239 -100.91356 -285.85289 -82.94419 -264.0625 -78.3125 C -242.27211 -73.68081 -262.16373 -102.2203 -241.8125 -111.28125 C -221.46127 -120.3422 -213.54485 -86.457379 -202.40625 -105.75 C -191.26765 -125.04262 -224.57765 -114.96984 -226.90625 -137.125 C -229.23485 -159.28016 -194.56239 -156.31981 -209.46875 -172.875 C -224.37511 -189.43019 -225.05336 -154.64956 -246.84375 -159.28125 C -265.91034 -163.33398 -257.968 -188.37152 -269.3125 -188.5 z "
       style="fill:#ffffff;fill-opacity:1;fill-rule:nonzero;stroke:none"
       id="path6553"
       d="m -269.25,-193.71875 c -2.69559,-0.0305 -5.37619,0.74125 -8.34375,2.0625 -2.96695,1.32097 -5.32843,2.80276 -7.125,4.84375 -1.79657,2.04099 -2.79277,4.80763 -2.75,7.3125 0.0855,5.00973 2.73546,8.28859 4.90625,11.53125 2.17079,3.24266 4.24833,6.37615 5.125,9.25 0.87667,2.87385 0.96314,5.29787 -1.15625,8.96875 -2.1192,3.67056 -4.25879,4.79067 -7.1875,5.46875 -2.92871,0.67808 -6.69848,0.44571 -10.59375,0.1875 -3.89527,-0.25821 -8.05568,-0.89912 -12.4375,1.53125 -2.19091,1.21518 -4.09883,3.48582 -4.96875,6.0625 -0.86992,2.57668 -0.96451,5.3323 -0.625,8.5625 0.33952,3.23029 1.01986,5.94162 2.40625,8.28125 1.38639,2.33963 3.73007,4.17145 6.125,4.90625 4.78986,1.46959 8.71107,-0.0342 12.46875,-1.09375 3.75768,-1.05951 7.39904,-2.056 10.40625,-2 3.00721,0.056 5.31993,0.6937 8.15625,3.84375 2.83623,3.14995 3.26085,5.53956 3,8.53125 -0.26085,2.99169 -1.64297,6.503435 -3.09375,10.125 -1.45078,3.621565 -3.36229,7.362656 -2.40625,12.28125 0.47802,2.459297 2.03722,4.971032 4.21875,6.59375 2.18153,1.622718 4.79214,2.57479 7.96875,3.25 3.1768,0.675249 5.97182,0.876581 8.625,0.28125 2.65318,-0.595331 5.09371,-2.260697 6.53125,-4.3125 2.87507,-4.103606 2.66298,-8.31919 2.8125,-12.21875 0.14952,-3.89956 0.33268,-7.659573 1.3125,-10.5 0.97982,-2.84043 2.31529,-4.83848 6.1875,-6.5625 3.87177,-1.72382 6.26268,-1.36075 9.03125,-0.1875 2.76857,1.17325 5.65602,3.5323 8.65625,6.03125 3.00023,2.498953 5.99517,5.483821 10.96875,6.09375 2.48679,0.304964 5.37506,-0.395574 7.59375,-1.96875 2.21869,-1.573176 3.90719,-3.7808 5.53125,-6.59375 1.62418,-2.81317 2.68476,-5.38526 2.9375,-8.09375 0.25274,-2.70849 -0.58644,-5.56117 -2.09375,-7.5625 -3.01462,-4.00265 -7.0848,-5.08692 -10.75,-6.4375 -3.6652,-1.35058 -7.19225,-2.6875 -9.59375,-4.5 -2.4015,-1.8125 -3.86951,-3.69149 -4.3125,-7.90625 -0.44302,-4.21504 0.62308,-6.38777 2.59375,-8.65625 1.97067,-2.26848 5.13389,-4.29624 8.4375,-6.375 3.30361,-2.07876 7.06927,-3.99009 9.1875,-8.53125 1.05912,-2.27058 1.2482,-5.2167 0.4375,-7.8125 -0.8107,-2.5958 -2.358,-4.89886 -4.53125,-7.3125 -2.17314,-2.41351 -4.31624,-4.20335 -6.8125,-5.28125 -2.49626,-1.0779 -5.44352,-1.19007 -7.8125,-0.375 -4.73795,1.63014 -7.02498,5.15189 -9.4375,8.21875 -2.41252,3.06686 -4.78823,6.02813 -7.25,7.75 -2.46177,1.72187 -4.69767,2.53753 -8.84375,1.65625 -3.6284,-0.77124 -5.36807,-2.18091 -6.84375,-4.21875 -1.47568,-2.03784 -2.48735,-4.92632 -3.34375,-8.125 -0.8564,-3.19868 -1.47486,-6.61188 -3.0625,-9.96875 -0.79382,-1.67844 -1.9083,-3.39675 -3.6875,-4.78125 -1.7792,-1.3845 -4.18367,-2.22306 -6.5625,-2.25 z"
       transform="matrix(0.30468888,0,0,0.30468888,294.48305,862.28797)"
       inkscape:export-filename="C:\Users\Anthony\Desktop\Projects\SparkHouse\SpaceRace\Assets\Sprites\NewSprites\GearFiveShadow.png"
       inkscape:export-xdpi="2048"
       inkscape:export-ydpi="2048" />
    <path
       sodipodi:type="inkscape:offset"
       inkscape:radius="4.9329543"
       inkscape:original="M -40.15625 -175.8125 C -57.589235 -175.8125 -39.090092 -151.84149 -54.1875 -143.125 C -69.284909 -134.40851 -80.783506 -162.44116 -89.5 -147.34375 C -98.216493 -132.24634 -68.1875 -136.27673 -68.1875 -118.84375 C -68.1875 -101.41076 -98.216492 -105.44116 -89.5 -90.34375 C -80.783508 -75.246342 -69.284908 -103.27899 -54.1875 -94.5625 C -39.090091 -85.846007 -57.589236 -61.875001 -40.15625 -61.875 C -22.723265 -61.874999 -41.253658 -85.846008 -26.15625 -94.5625 C -11.058841 -103.27899 0.47100628 -75.246342 9.1875 -90.34375 C 17.903993 -105.44116 -12.125 -101.41077 -12.125 -118.84375 C -12.125 -136.27674 17.903992 -132.24634 9.1875 -147.34375 C 0.47100824 -162.44116 -11.058842 -134.40851 -26.15625 -143.125 C -41.253659 -151.84149 -22.723264 -175.8125 -40.15625 -175.8125 z "
       style="fill:#ffffff;fill-opacity:1;fill-rule:nonzero;stroke:none"
       id="path6533"
       d="m -40.15625,-180.75 c -2.744373,0 -5.233471,0.46174 -7.40625,1.6875 -2.172779,1.22576 -3.782979,3.28499 -4.59375,5.3125 -1.621543,4.05503 -1.09548,7.8177 -0.8125,11.40625 0.28298,3.58855 0.508161,6.99484 0.03125,9.5 -0.476911,2.50516 -1.170051,3.96601 -3.71875,5.4375 -2.547997,1.47109 -4.15607,1.37232 -6.5625,0.53125 -2.40643,-0.84107 -5.254127,-2.76997 -8.21875,-4.8125 -2.964623,-2.04253 -5.958966,-4.40359 -10.28125,-5.03125 -2.161142,-0.31383 -4.72617,0.0754 -6.875,1.34375 -2.14883,1.26835 -3.815273,3.18573 -5.1875,5.5625 -1.372418,2.3771 -2.226134,4.78588 -2.25,7.28125 -0.02387,2.49537 0.96099,4.90943 2.3125,6.625 2.703021,3.43113 6.217057,4.82523 9.46875,6.375 3.251693,1.54977 6.348289,3.08361 8.28125,4.75 1.932961,1.66639 2.84375,2.99546 2.84375,5.9375 0,2.94205 -0.910789,4.27111 -2.84375,5.9375 -1.932961,1.66639 -5.029558,3.20023 -8.28125,4.75 -3.251692,1.54977 -6.765729,2.94387 -9.46875,6.375 -1.351511,1.71557 -2.336366,4.129631 -2.3125,6.625 0.02387,2.495369 0.877582,4.904152 2.25,7.28125 1.372226,2.376766 3.03867,4.294146 5.1875,5.5625 2.14883,1.268354 4.713858,1.657578 6.875,1.34375 4.322284,-0.627657 7.316627,-2.988716 10.28125,-5.03125 2.964623,-2.042534 5.81232,-3.971428 8.21875,-4.8125 2.40643,-0.841072 4.014504,-0.939836 6.5625,0.53125 2.5487,1.471493 3.241839,2.932345 3.71875,5.4375 0.476911,2.505155 0.251731,5.911452 -0.03125,9.5 -0.282981,3.588548 -0.809043,7.351223 0.8125,11.40625 0.810771,2.027514 2.420971,4.086743 4.59375,5.3125 2.172779,1.225757 4.661877,1.6875 7.40625,1.6875 2.744373,0 5.233441,-0.460847 7.40625,-1.6875 2.172809,-1.226653 3.785072,-3.283986 4.59375,-5.3125 1.617356,-4.057028 1.068166,-7.817991 0.78125,-11.40625 -0.286916,-3.588259 -0.505845,-6.995913 -0.03125,-9.5 0.474595,-2.504087 1.170689,-3.966376 3.71875,-5.4375 2.547359,-1.470718 4.152254,-1.372917 6.5625,-0.53125 2.410246,0.841667 5.281358,2.769924 8.25,4.8125 2.9686424,2.042576 5.9581017,4.404191 10.28125,5.03125 2.1615742,0.313529 4.7251236,-0.0757 6.875,-1.34375 2.149876,-1.268052 3.814954,-3.185181 5.1875,-5.5625 1.372418,-2.377099 2.226134,-4.78588 2.25,-7.28125 0.02387,-2.49537 -0.96099,-4.90943 -2.3125,-6.625 -2.703021,-3.43113 -6.2170574,-4.82523 -9.46875,-6.375 -3.2516926,-1.54977 -6.3482887,-3.08361 -8.28125,-4.75 -1.9329613,-1.66639 -2.84375,-2.99546 -2.84375,-5.9375 0,-2.94205 0.9107891,-4.27111 2.84375,-5.9375 1.9329609,-1.66639 5.02955774,-3.20023 8.28125,-4.75 3.2516923,-1.54977 6.765729,-2.94387 9.46875,-6.375 1.351511,-1.71557 2.336366,-4.12963 2.3125,-6.625 -0.02387,-2.49537 -0.877582,-4.90415 -2.25,-7.28125 -1.372545,-2.37732 -3.037624,-4.29445 -5.1875,-5.5625 -2.1498764,-1.26805 -4.7134257,-1.65728 -6.875,-1.34375 -4.3231485,0.62706 -7.3126074,2.98867 -10.28125,5.03125 -2.968643,2.04258 -5.839754,3.97083 -8.25,4.8125 -2.410246,0.84167 -4.015142,0.93947 -6.5625,-0.53125 -2.548062,-1.47112 -3.244155,-2.93341 -3.71875,-5.4375 -0.474595,-2.50409 -0.255666,-5.91174 0.03125,-9.5 0.286916,-3.58826 0.836106,-7.34922 -0.78125,-11.40625 -0.808678,-2.02851 -2.420941,-4.08585 -4.59375,-5.3125 -2.172809,-1.22665 -4.661877,-1.6875 -7.40625,-1.6875 z"
       transform="matrix(0.30468888,0,0,0.30468888,184.94272,857.27667)"
       inkscape:export-filename="C:\Users\Anthony\Desktop\Projects\SparkHouse\SpaceRace\Assets\Sprites\NewSprites\GearSixShadow.png"
       inkscape:export-xdpi="2048"
       inkscape:export-ydpi="2048" />
    <path
       style="fill:#ffffff;fill-opacity:1;fill-rule:nonzero;stroke:none"
       d="m 3.0766032,798.12618 0,252.16802 74.5249908,0 0,-252.16802 -74.5249908,0 z M 60.691353,820.5113 c 4.82086,0 8.69316,3.86462 8.69316,8.68363 0,4.81901 -3.87415,8.69315 -8.69316,8.69315 -4.81901,0 -8.69315,-3.87414 -8.69315,-8.69315 0,-4.81901 3.87229,-8.68363 8.69315,-8.68363 z m 0,41.42816 c 4.81901,0 8.69316,3.87414 8.69316,8.69316 0,4.81898 -3.87416,8.69315 -8.69316,8.69315 -4.819,0 -8.69315,-3.87417 -8.69315,-8.69315 0,-4.81902 3.87414,-8.69316 8.69315,-8.69316 z m 0,41.43769 c 4.81901,0 8.69316,3.87414 8.69316,8.69315 0,4.81899 -3.87416,8.69316 -8.69316,8.69316 -4.819,0 -8.69315,-3.87417 -8.69315,-8.69316 0,-4.81901 3.87414,-8.69315 8.69315,-8.69315 z m 0,41.43769 c 4.81901,0 8.69316,3.87414 8.69316,8.69315 0,4.81898 -3.87416,8.69316 -8.69316,8.69316 -4.819,0 -8.69315,-3.87418 -8.69315,-8.69316 0,-4.81901 3.87414,-8.69315 8.69315,-8.69315 z m 0,41.43768 c 4.81901,0 8.69316,3.87414 8.69316,8.69316 0,4.81904 -3.87416,8.69312 -8.69316,8.69312 -4.819,0 -8.69315,-3.87408 -8.69315,-8.69312 0,-4.81902 3.87414,-8.69316 8.69315,-8.69316 z m 0,41.43758 c 4.81901,0 8.69316,3.8742 8.69316,8.6932 0,4.819 -3.87416,8.6931 -8.69316,8.6931 -4.819,0 -8.69315,-3.8741 -8.69315,-8.6931 0,-4.819 3.87414,-8.6932 8.69315,-8.6932 z"
       id="path6374"
       inkscape:connector-curvature="0"
       inkscape:export-filename="C:\Users\Anthony\Desktop\Projects\SparkHouse\SpaceRace\Assets\Sprites\NewSprites\WallShadow.png"
       inkscape:export-xdpi="2047.9202"
       inkscape:export-ydpi="2047.9202" />
  </g>
</svg>
