<?xml version="1.0" encoding="UTF-8" standalone="no"?>
<!-- Created with Inkscape (http://www.inkscape.org/) -->

<svg
   xmlns:dc="http://purl.org/dc/elements/1.1/"
   xmlns:cc="http://creativecommons.org/ns#"
   xmlns:rdf="http://www.w3.org/1999/02/22-rdf-syntax-ns#"
   xmlns:svg="http://www.w3.org/2000/svg"
   xmlns="http://www.w3.org/2000/svg"
   xmlns:sodipodi="http://sodipodi.sourceforge.net/DTD/sodipodi-0.dtd"
   xmlns:inkscape="http://www.inkscape.org/namespaces/inkscape"
   width="256"
   height="256"
   id="svg2989"
   version="1.1"
   inkscape:version="0.48.4 r9939"
   sodipodi:docname="Obstacles.svg"
   inkscape:export-filename="C:\Users\Anthony\Desktop\Projects\SparkHouse\SpaceRace\Assets\Sprites\Obstacles\Obstacles.png"
   inkscape:export-xdpi="360"
   inkscape:export-ydpi="360">
  <defs
     id="defs2991">
    <linearGradient
       id="linearGradient4857">
      <stop
         style="stop-color:#3f3a4b;stop-opacity:1;"
         offset="0"
         id="stop4859" />
      <stop
         id="stop4865"
         offset="0.84722221"
         style="stop-color:#3f3a4b;stop-opacity:0.92792791;" />
      <stop
         style="stop-color:#3f3a4b;stop-opacity:0;"
         offset="1"
         id="stop4861" />
    </linearGradient>
  </defs>
  <sodipodi:namedview
     id="base"
     pagecolor="#ffffff"
     bordercolor="#666666"
     borderopacity="1.0"
     inkscape:pageopacity="0.0"
     inkscape:pageshadow="2"
     inkscape:zoom="1.4"
     inkscape:cx="66.396946"
     inkscape:cy="141.92657"
     inkscape:document-units="px"
     inkscape:current-layer="layer1"
     showgrid="false"
     units="px"
     inkscape:window-width="1600"
     inkscape:window-height="837"
     inkscape:window-x="-8"
     inkscape:window-y="-8"
     inkscape:window-maximized="1"
     inkscape:snap-bbox="true"
     inkscape:bbox-paths="true"
     inkscape:bbox-nodes="true"
     inkscape:snap-bbox-edge-midpoints="true"
     inkscape:snap-bbox-midpoints="true"
     inkscape:object-paths="true"
     inkscape:snap-intersection-paths="true"
     inkscape:object-nodes="true"
     inkscape:snap-object-midpoints="true"
     inkscape:snap-center="true"
     inkscape:snap-global="true" />
  <metadata
     id="metadata2994">
    <rdf:RDF>
      <cc:Work
         rdf:about="">
        <dc:format>image/svg+xml</dc:format>
        <dc:type
           rdf:resource="http://purl.org/dc/dcmitype/StillImage" />
        <dc:title />
      </cc:Work>
    </rdf:RDF>
  </metadata>
  <g
     inkscape:label="Layer 1"
     inkscape:groupmode="layer"
     id="layer1"
     transform="translate(0,-796.3598)">
    <path
       style="fill:#000000;fill-opacity:1;fill-rule:nonzero;stroke:#ffffff;stroke-width:2;stroke-miterlimit:4;stroke-opacity:1;stroke-dasharray:none"
       d="M 164.625 9.53125 C 162.91474 9.5925145 160.95399 10.119317 158.625 11.15625 C 137.33137 20.636783 168.87314 38.501508 157.21875 58.6875 C 145.56436 78.873491 114.31357 60.475163 116.75 83.65625 C 119.18643 106.83734 145.93463 82.334454 161.53125 99.65625 C 177.12786 116.97805 149.98183 141.02883 172.78125 145.875 C 195.58067 150.72117 180.55012 117.69928 201.84375 108.21875 C 223.13738 98.738217 237.62686 131.99849 249.28125 111.8125 C 260.93564 91.626508 224.87393 95.743588 222.4375 72.5625 C 220.00107 49.381413 256.09661 45.884296 240.5 28.5625 C 224.90338 11.240704 217.67442 46.783667 194.875 41.9375 C 174.56926 37.621383 178.55139 9.0323819 164.625 9.53125 z M 187.59375 62.15625 C 195.35702 62.15625 201.625 68.455481 201.625 76.21875 C 201.625 83.982019 195.35702 90.28125 187.59375 90.28125 C 179.83048 90.28125 173.53125 83.982019 173.53125 76.21875 C 173.53125 68.455481 179.83048 62.15625 187.59375 62.15625 z "
       transform="translate(0,796.3598)"
       id="path4308" />
    <path
       style="fill:#000000;fill-opacity:1;fill-rule:nonzero;stroke:#ffffff;stroke-opacity:1;stroke-width:2;stroke-miterlimit:4;stroke-dasharray:none"
       d="M 7.375 109.9375 L 7.375 199.9375 L 97.375 199.9375 L 97.375 109.9375 L 7.375 109.9375 z M 32.96875 127.78125 C 38.442959 127.90871 42.406901 137.78125 52.125 137.78125 C 64.564167 137.78125 67.641681 121.61043 76.4375 130.40625 C 85.233319 139.20207 69.03125 142.24833 69.03125 154.6875 C 69.03125 167.12667 85.233319 170.17293 76.4375 178.96875 C 67.641681 187.76457 64.564166 171.59375 52.125 171.59375 C 39.685833 171.59375 36.639569 187.76457 27.84375 178.96875 C 19.047931 170.17293 35.25 167.12667 35.25 154.6875 C 35.25 142.24833 19.047931 139.20207 27.84375 130.40625 C 29.767835 128.48216 31.435971 127.74556 32.96875 127.78125 z "
       transform="translate(0,796.3598)"
       id="rect2994" />
    <rect
       style="fill:#000000;fill-opacity:1;fill-rule:nonzero;stroke:#ffffff;stroke-opacity:1;stroke-width:2;stroke-miterlimit:4;stroke-dasharray:none"
       id="rect2997"
       width="180"
       height="45"
       x="4.6219106"
       y="1001.7805" />
    <path
       style="fill:#000000;fill-opacity:1;fill-rule:nonzero;stroke:#ffffff;stroke-width:2;stroke-miterlimit:4;stroke-opacity:1;stroke-dasharray:none"
       d="M 52.90625 8.21875 C 28.053435 8.21875 7.90625 28.365937 7.90625 53.21875 C 7.90625 78.071563 28.053435 98.21875 52.90625 98.21875 C 77.759065 98.21875 97.90625 78.071563 97.90625 53.21875 C 97.90625 28.365937 77.759065 8.21875 52.90625 8.21875 z M 52.90625 28.6875 L 77.4375 53.21875 L 52.90625 77.75 L 28.375 53.21875 L 52.90625 28.6875 z "
       id="path2990"
       transform="translate(0,796.3598)" />
  </g>
</svg>
