<?xml version="1.0" encoding="UTF-8" standalone="no"?>
<!-- Created with Inkscape (http://www.inkscape.org/) -->

<svg
   xmlns:dc="http://purl.org/dc/elements/1.1/"
   xmlns:cc="http://creativecommons.org/ns#"
   xmlns:rdf="http://www.w3.org/1999/02/22-rdf-syntax-ns#"
   xmlns:svg="http://www.w3.org/2000/svg"
   xmlns="http://www.w3.org/2000/svg"
   xmlns:xlink="http://www.w3.org/1999/xlink"
   xmlns:sodipodi="http://sodipodi.sourceforge.net/DTD/sodipodi-0.dtd"
   xmlns:inkscape="http://www.inkscape.org/namespaces/inkscape"
   width="256"
   height="256"
   id="svg2989"
   version="1.1"
   inkscape:version="0.48.4 r9939"
   sodipodi:docname="New document 5">
  <defs
     id="defs2991">
    <linearGradient
       inkscape:collect="always"
       id="linearGradient5185">
      <stop
         style="stop-color:#000000;stop-opacity:1;"
         offset="0"
         id="stop5187" />
      <stop
         style="stop-color:#000000;stop-opacity:0;"
         offset="1"
         id="stop5189" />
    </linearGradient>
    <linearGradient
       id="linearGradient5070">
      <stop
         style="stop-color:#eec469;stop-opacity:1;"
         offset="0"
         id="stop5072" />
      <stop
         style="stop-color:#eec469;stop-opacity:0;"
         offset="1"
         id="stop5074" />
    </linearGradient>
    <linearGradient
       id="linearGradient4015">
      <stop
         style="stop-color:#000000;stop-opacity:0.65765768;"
         offset="0"
         id="stop4017" />
      <stop
         style="stop-color:#000000;stop-opacity:0;"
         offset="1"
         id="stop4019" />
    </linearGradient>
    <linearGradient
       y2="201.52809"
       x2="121.69761"
       y1="122.37656"
       x1="121.69761"
       gradientTransform="matrix(0.06722626,0,0,0.23148762,49.607864,953.06191)"
       gradientUnits="userSpaceOnUse"
       id="linearGradient3780"
       xlink:href="#linearGradient3756-7"
       inkscape:collect="always" />
    <linearGradient
       id="linearGradient3756-7">
      <stop
         style="stop-color:#ff91a3;stop-opacity:1;"
         offset="0"
         id="stop3758-4" />
      <stop
         style="stop-color:#ff75a9;stop-opacity:0;"
         offset="1"
         id="stop3760-0" />
    </linearGradient>
    <linearGradient
       y2="201.52809"
       x2="121.69761"
       y1="122.37656"
       x1="121.69761"
       gradientTransform="matrix(0.06722626,0,0,0.23148762,67.597074,875.28608)"
       gradientUnits="userSpaceOnUse"
       id="linearGradient3815"
       xlink:href="#linearGradient3756-7"
       inkscape:collect="always" />
    <linearGradient
       inkscape:collect="always"
       xlink:href="#linearGradient3756-7"
       id="linearGradient3995"
       gradientUnits="userSpaceOnUse"
       gradientTransform="matrix(0.06722626,0,0,0.23148762,225.45161,845.3089)"
       x1="121.69761"
       y1="122.37656"
       x2="121.69761"
       y2="201.52809" />
    <linearGradient
       inkscape:collect="always"
       xlink:href="#linearGradient4015-6"
       id="linearGradient4021"
       x1="64.887321"
       y1="921.82623"
       x2="64.887321"
       y2="1029.593"
       gradientUnits="userSpaceOnUse"
       gradientTransform="matrix(1,0,0,0.52147242,123.80046,463.65025)" />
    <linearGradient
       inkscape:collect="always"
       xlink:href="#linearGradient4015-6"
       id="linearGradient4021-1"
       x1="64.887321"
       y1="921.82623"
       x2="64.887321"
       y2="1029.593"
       gradientUnits="userSpaceOnUse"
       gradientTransform="matrix(1,0,0,0.52147242,0,437.48768)" />
    <linearGradient
       id="linearGradient4015-6">
      <stop
         style="stop-color:#ffffff;stop-opacity:0.65765768;"
         offset="0"
         id="stop4017-0" />
      <stop
         style="stop-color:#ffffff;stop-opacity:0;"
         offset="1"
         id="stop4019-9" />
    </linearGradient>
    <linearGradient
       y2="1029.593"
       x2="64.887321"
       y1="921.82623"
       x1="64.887321"
       gradientTransform="matrix(1,0,0,0.96809815,124.5533,-82.668037)"
       gradientUnits="userSpaceOnUse"
       id="linearGradient4562"
       xlink:href="#linearGradient4015-6"
       inkscape:collect="always" />
    <linearGradient
       inkscape:collect="always"
       xlink:href="#linearGradient4015-6-2"
       id="linearGradient4021-5"
       x1="64.887321"
       y1="921.82623"
       x2="64.887321"
       y2="1029.593"
       gradientUnits="userSpaceOnUse"
       gradientTransform="matrix(1,0,0,0.52147242,123.80046,463.65025)" />
    <linearGradient
       id="linearGradient4015-6-2">
      <stop
         style="stop-color:#ffffff;stop-opacity:0.65765768;"
         offset="0"
         id="stop4017-0-1" />
      <stop
         style="stop-color:#ffffff;stop-opacity:0;"
         offset="1"
         id="stop4019-9-4" />
    </linearGradient>
    <linearGradient
       y2="1029.593"
       x2="64.887321"
       y1="921.82623"
       x1="64.887321"
       gradientTransform="matrix(3.5721157,0,0,0.52147242,-460.31998,-1623.2342)"
       gradientUnits="userSpaceOnUse"
       id="linearGradient4688"
       xlink:href="#linearGradient4015"
       inkscape:collect="always" />
    <linearGradient
       y2="1029.593"
       x2="64.887321"
       y1="921.82623"
       x1="64.887321"
       gradientTransform="matrix(3.5721157,0,0,0.52147242,-460.31998,-1623.2342)"
       gradientUnits="userSpaceOnUse"
       id="linearGradient4688-8"
       xlink:href="#linearGradient4015-3"
       inkscape:collect="always" />
    <linearGradient
       id="linearGradient4015-3">
      <stop
         style="stop-color:#000000;stop-opacity:0.65765768;"
         offset="0"
         id="stop4017-5" />
      <stop
         style="stop-color:#000000;stop-opacity:0;"
         offset="1"
         id="stop4019-5" />
    </linearGradient>
    <linearGradient
       y2="1029.593"
       x2="64.887321"
       y1="921.82623"
       x1="64.887321"
       gradientTransform="matrix(0.70971677,0,0,0.10360743,-816.6239,1391.6091)"
       gradientUnits="userSpaceOnUse"
       id="linearGradient4820"
       xlink:href="#linearGradient4015-3"
       inkscape:collect="always" />
    <linearGradient
       y2="1029.593"
       x2="64.887321"
       y1="921.82623"
       x1="64.887321"
       gradientTransform="matrix(0.70971677,0,0,0.10360743,-831.51139,1328.5696)"
       gradientUnits="userSpaceOnUse"
       id="linearGradient4820-5"
       xlink:href="#linearGradient4015-3-5"
       inkscape:collect="always" />
    <linearGradient
       id="linearGradient4015-3-5">
      <stop
         style="stop-color:#000000;stop-opacity:0.65765768;"
         offset="0"
         id="stop4017-5-8" />
      <stop
         style="stop-color:#000000;stop-opacity:0;"
         offset="1"
         id="stop4019-5-4" />
    </linearGradient>
    <linearGradient
       y2="1029.593"
       x2="64.887321"
       y1="921.82623"
       x1="64.887321"
       gradientTransform="matrix(0.70971677,0,0,0.10360743,1232.3809,1131.9516)"
       gradientUnits="userSpaceOnUse"
       id="linearGradient4855"
       xlink:href="#linearGradient4015-3-5"
       inkscape:collect="always" />
    <linearGradient
       y2="1029.593"
       x2="64.887321"
       y1="921.82623"
       x1="64.887321"
       gradientTransform="matrix(0.70971677,0,0,0.10360743,-831.51139,1328.5696)"
       gradientUnits="userSpaceOnUse"
       id="linearGradient4820-4"
       xlink:href="#linearGradient4015-3-7"
       inkscape:collect="always" />
    <linearGradient
       id="linearGradient4015-3-7">
      <stop
         style="stop-color:#000000;stop-opacity:0.65765768;"
         offset="0"
         id="stop4017-5-2" />
      <stop
         style="stop-color:#000000;stop-opacity:0;"
         offset="1"
         id="stop4019-5-1" />
    </linearGradient>
    <linearGradient
       y2="1029.593"
       x2="64.887321"
       y1="921.82623"
       x1="64.887321"
       gradientTransform="matrix(0.70971677,0,0,0.10360743,1568.1331,-795.01792)"
       gradientUnits="userSpaceOnUse"
       id="linearGradient4855-4"
       xlink:href="#linearGradient4015-3-7"
       inkscape:collect="always" />
    <linearGradient
       y2="1029.593"
       x2="64.887321"
       y1="921.82623"
       x1="64.887321"
       gradientTransform="matrix(0.70971677,0,0,0.10360743,-831.51139,1328.5696)"
       gradientUnits="userSpaceOnUse"
       id="linearGradient4820-0"
       xlink:href="#linearGradient4015-3-3"
       inkscape:collect="always" />
    <linearGradient
       id="linearGradient4015-3-3">
      <stop
         style="stop-color:#000000;stop-opacity:0.65765768;"
         offset="0"
         id="stop4017-5-0" />
      <stop
         style="stop-color:#000000;stop-opacity:0;"
         offset="1"
         id="stop4019-5-3" />
    </linearGradient>
    <linearGradient
       y2="1029.593"
       x2="64.887321"
       y1="921.82623"
       x1="64.887321"
       gradientTransform="matrix(0.71081406,0,0,0.16577716,89.254417,-1805.4222)"
       gradientUnits="userSpaceOnUse"
       id="linearGradient4855-5"
       xlink:href="#linearGradient4015-3-3"
       inkscape:collect="always" />
    <linearGradient
       y2="1029.593"
       x2="64.887321"
       y1="921.82623"
       x1="64.887321"
       gradientTransform="matrix(0.70971677,0,0,0.10360743,-831.51139,1328.5696)"
       gradientUnits="userSpaceOnUse"
       id="linearGradient4820-7"
       xlink:href="#linearGradient4015-3-8"
       inkscape:collect="always" />
    <linearGradient
       id="linearGradient4015-3-8">
      <stop
         style="stop-color:#000000;stop-opacity:0.65765768;"
         offset="0"
         id="stop4017-5-3" />
      <stop
         style="stop-color:#000000;stop-opacity:0;"
         offset="1"
         id="stop4019-5-6" />
    </linearGradient>
    <linearGradient
       y2="1029.593"
       x2="64.887321"
       y1="921.82623"
       x1="64.887321"
       gradientTransform="matrix(0.70971677,0,0,0.10360743,-1605.796,-393.70676)"
       gradientUnits="userSpaceOnUse"
       id="linearGradient4855-44"
       xlink:href="#linearGradient4015-3-8"
       inkscape:collect="always" />
    <radialGradient
       inkscape:collect="always"
       xlink:href="#linearGradient5185"
       id="radialGradient5193"
       cx="1772.3282"
       cy="1193.1094"
       fx="1772.3282"
       fy="1193.1094"
       r="81.265648"
       gradientTransform="matrix(0.99999852,-1.0000082,1.000009,0.99999941,-1895.9497,2428.1374)"
       gradientUnits="userSpaceOnUse" />
  </defs>
  <sodipodi:namedview
     id="base"
     pagecolor="#ffffff"
     bordercolor="#666666"
     borderopacity="1.0"
     inkscape:pageopacity="0.0"
     inkscape:pageshadow="2"
     inkscape:zoom="1.34456"
     inkscape:cx="1147.6011"
     inkscape:cy="-591.7723"
     inkscape:document-units="px"
     inkscape:current-layer="layer1"
     showgrid="false"
     units="px"
     inkscape:window-width="1600"
     inkscape:window-height="837"
     inkscape:window-x="-8"
     inkscape:window-y="-8"
     inkscape:window-maximized="1"
     inkscape:snap-global="false"
     inkscape:snap-bbox="true"
     inkscape:bbox-paths="true"
     inkscape:bbox-nodes="true"
     inkscape:snap-bbox-edge-midpoints="true"
     inkscape:snap-bbox-midpoints="true"
     inkscape:object-paths="true"
     inkscape:snap-intersection-paths="true"
     inkscape:object-nodes="true"
     inkscape:snap-smooth-nodes="true"
     inkscape:snap-midpoints="true" />
  <metadata
     id="metadata2994">
    <rdf:RDF>
      <cc:Work
         rdf:about="">
        <dc:format>image/svg+xml</dc:format>
        <dc:type
           rdf:resource="http://purl.org/dc/dcmitype/StillImage" />
        <dc:title></dc:title>
      </cc:Work>
    </rdf:RDF>
  </metadata>
  <g
     inkscape:label="Layer 1"
     inkscape:groupmode="layer"
     id="layer1"
     transform="translate(0,-796.3598)">
    <rect
       style="fill:url(#linearGradient4688);fill-opacity:1.0;fill-rule:nonzero;stroke:none"
       id="rect3993-0-8"
       width="420.19507"
       height="64.507874"
       x="-438.63248"
       y="-1146.4846"
       transform="scale(-1,-1)" />
    <rect
       style="fill:#ffffff;fill-opacity:1;fill-rule:nonzero;stroke:none"
       id="rect3993"
       width="117.63199"
       height="117.63199"
       x="6.0713258"
       y="802.67645" />
    <rect
       style="fill:url(#linearGradient4021);fill-opacity:1.0;fill-rule:nonzero;stroke:none"
       id="rect3993-0"
       width="117.63199"
       height="64.507874"
       x="129.87178"
       y="940.39966" />
    <rect
       style="fill:url(#linearGradient4562);fill-opacity:1;fill-rule:nonzero;stroke:none"
       id="rect3993-0-5"
       width="117.63199"
       height="119.75697"
       x="130.62463"
       y="802.4032" />
    <path
       style="fill:#332f2b;fill-opacity:1;fill-rule:nonzero;stroke:none"
       d="M 24.25 333.15625 L 2 355.40625 L 180.15625 355.40625 L 157.875 333.15625 L 144.5 346.53125 C 142.27157 344.48773 139.32437 343.21875 136.0625 343.21875 C 132.57327 343.21875 129.42699 344.63513 127.15625 346.9375 L 113.34375 333.15625 L 99.875 346.625 C 97.58121 344.04329 94.256405 342.40625 90.53125 342.40625 C 87.081947 342.40625 83.983463 343.80636 81.71875 346.0625 L 81.6875 346.0625 L 68.8125 333.15625 L 55.375 346.5625 C 53.108939 344.29644 49.989142 342.90625 46.53125 342.90625 C 43.073358 342.90625 39.953561 344.29644 37.6875 346.5625 L 24.25 333.15625 z "
       transform="translate(0,796.3598)"
       id="rect4583" />
    <path
       inkscape:connector-curvature="0"
       style="fill:#332f2b;fill-opacity:1;fill-rule:nonzero;stroke:none"
       d="m 157.875,1129.5161 -22.25,22.25 178.15624,0 -22.28125,-22.25 -13.375,13.375 c -2.22843,-2.0436 -5.17562,-3.3125 -8.4375,-3.3125 -3.48923,0 -6.6355,1.4163 -8.90625,3.7185 l -13.81249,-13.781 -13.46875,13.4685 c -2.29379,-2.5816 -5.6186,-4.2185 -9.34375,-4.2185 -3.44931,0 -6.54779,1.4001 -8.8125,3.656 l -0.0312,0 -12.875,-12.906 -13.43751,13.406 c -2.26606,-2.2662 -5.38585,-3.656 -8.84374,-3.656 -3.4579,0 -6.57768,1.3902 -8.84376,3.656 l -13.43749,-13.406 z"
       id="rect4583-2" />
    <path
       inkscape:connector-curvature="0"
       style="fill:#332f2b;fill-opacity:1;fill-rule:nonzero;stroke:none"
       d="m 291.49999,1129.5161 -22.25,22.25 178.15625,0 -22.28125,-22.25 -13.375,13.375 c -2.22843,-2.0435 -5.17563,-3.3125 -8.4375,-3.3125 -3.48923,0 -6.63551,1.4164 -8.90625,3.7187 l -13.8125,-13.7812 -13.46875,13.4687 c -2.29379,-2.5817 -5.61859,-4.2187 -9.34375,-4.2187 -3.4493,0 -6.54778,1.4001 -8.8125,3.6562 l -0.0312,0 -12.875,-12.9062 -13.4375,13.4062 c -2.26606,-2.266 -5.38585,-3.6562 -8.84375,-3.6562 -3.45789,0 -6.57769,1.3902 -8.84375,3.6562 l -13.4375,-13.4062 z"
       id="rect4583-5" />
    <rect
       style="fill:#dbfafa;fill-opacity:1;fill-rule:nonzero;stroke:none"
       id="rect4709"
       width="474.80215"
       height="1538.3174"
       x="929.59277"
       y="825.414" />
    <path
       style="fill:#ffffff;fill-opacity:0.87765958;fill-rule:nonzero;stroke:none"
       d="m 1165.7632,1200.7871 c 0.408,0.2474 0.8171,0.489 1.2235,0.6962 1.6254,0.8286 3.2364,1.3313 4.8445,1.572 0.4021,0.06 0.8072,0.106 1.2087,0.133 1.1605,0.078 2.3219,0.042 3.4819,-0.1349 0.044,-0.01 0.085,-0.022 0.1294,-0.029 0.3137,-0.051 0.6175,-0.1218 0.9314,-0.1893 0.087,-0.019 0.1709,-0.039 0.2586,-0.059 0.3912,-0.09 0.7883,-0.1767 1.1801,-0.2911 0.028,-0.01 0.058,-0.012 0.086,-0.02 0.3887,-0.1147 0.7876,-0.266 1.1771,-0.4038 0.2444,-0.087 0.485,-0.1837 0.7297,-0.2792 0.564,-0.219 1.1053,-0.4581 1.6717,-0.7203 0.4058,-0.1877 0.817,-0.3875 1.2242,-0.5957 0.6149,-0.3144 1.2359,-0.6541 1.8549,-1.0112 0.4156,-0.2399 0.82,-0.4775 1.2379,-0.7347 0.1137,-0.07 0.228,-0.1199 0.3418,-0.1911 0.5033,-0.3142 0.9933,-0.6393 1.5003,-0.9758 0.8315,-0.5519 1.6602,-1.1451 2.5031,-1.7478 0.4038,-0.289 0.8183,-0.5918 1.2251,-0.8906 0.9635,-0.7076 1.9434,-1.4334 2.9251,-2.1837 0.2981,-0.2278 0.5932,-0.4257 0.8932,-0.6564 0.034,-0.026 0.058,-0.063 0.093,-0.089 2.2921,-1.7642 4.6608,-3.6236 7.0793,-5.4402 0.8117,-0.6097 1.6383,-1.2075 2.4668,-1.8075 0.4539,-0.3288 0.902,-0.6654 1.3612,-0.9895 0.3311,-0.2335 0.662,-0.472 0.996,-0.7024 0.1152,-0.08 0.2427,-0.1383 0.3584,-0.2175 0.7902,-0.5412 1.5698,-1.0869 2.3767,-1.6058 0.015,0 0.031,0 0.043,-0.01 0.6797,-0.4366 1.372,-0.8687 2.0644,-1.2854 0.1923,-0.1156 0.3874,-0.222 0.5807,-0.336 0.8111,-0.4785 1.6132,-0.9725 2.4424,-1.4167 0.086,-0.046 0.179,-0.083 0.2654,-0.1284 0.4279,-0.2267 0.8677,-0.4422 1.3005,-0.6585 0.4933,-0.246 0.9898,-0.4927 1.4896,-0.7241 0.549,-0.2542 1.1146,-0.4851 1.6718,-0.7202 0.8676,-0.3659 1.7547,-0.7173 2.6433,-1.0318 0.9867,-0.3493 1.9703,-0.65 2.9841,-0.9282 0.3285,-0.09 0.6501,-0.1865 0.9815,-0.2685 0.1735,-0.043 0.3426,-0.077 0.5171,-0.1176 0.4,-0.093 0.8021,-0.1933 1.2066,-0.2745 0.1082,-0.022 0.2189,-0.031 0.3281,-0.052 0.4707,-0.09 0.9385,-0.181 1.4151,-0.2539 0.051,-0.01 0.1048,0 0.1559,-0.013 1.0454,-0.1555 2.1157,-0.252 3.191,-0.3179 0.081,0 0.1605,-0.028 0.2419,-0.032 0.4595,-0.025 0.9296,-0.038 1.3946,-0.045 1.0357,-0.017 2.1023,0 3.1666,0.073 0.046,0 0.092,0.01 0.1388,0.014 0.061,0 0.1207,-8e-4 0.1823,0 0.5041,0.04 1.0026,0.1155 1.5132,0.177 2.2893,0.276 4.6428,0.7453 7.0709,1.4962 0.524,0.162 1.0434,0.354 1.5486,0.5315 0.497,0.1745 0.9831,0.3621 1.4624,0.5512 l -13.3744,-11.0758 13.8375,4.9424 -6.1471,-15.1673 0.9463,-14.4694 -12.6742,-16.7644 14.6707,8.6053 6.5239,-15.3529 17.7488,-3.267 -15.4,8.5114 -5.2882,34.3341 8.4454,18.497 4.7603,-9.5583 24.9894,-13.7748 -20.66,15.872 -6.513,16.0982 c 0.3724,0.349 0.7304,0.7289 1.0864,1.09 0.3199,0.3244 0.6207,0.6561 0.9277,0.99 0.065,0.071 0.14,0.1318 0.205,0.2022 0.3079,0.3397 0.5992,0.6944 0.8945,1.043 0.3279,0.3872 0.6539,0.7648 0.9669,1.1623 0.3119,0.3964 0.6095,0.7928 0.9072,1.1987 0.2347,0.3197 0.4664,0.6276 0.6926,0.9529 0.051,0.073 0.1113,0.1398 0.1615,0.2127 0.027,0.038 0.047,0.081 0.073,0.119 0.5478,0.8027 1.055,1.6237 1.5558,2.4562 0.029,0.048 0.071,0.088 0.099,0.1357 0.8479,1.4196 1.6041,2.9 2.3348,4.3865 0.2972,0.604 0.6082,1.2023 0.8887,1.8147 0.1868,0.4082 0.3727,0.8226 0.5527,1.234 0.09,0.2066 0.1875,0.4096 0.2762,0.6169 0.37,0.8641 0.7047,1.7435 1.0486,2.6169 0.2607,0.662 0.5243,1.3347 0.7721,1.9998 0.1014,0.2721 0.1996,0.5436 0.299,0.8159 1.0233,2.8048 1.9375,5.5944 2.8292,8.353 0.4105,1.2696 0.8139,2.519 1.2173,3.7569 0.1852,0.5684 0.3787,1.1248 0.5644,1.6846 0.1586,0.4778 0.3194,0.9386 0.4792,1.4092 0.344,1.0133 0.6854,2.008 1.0408,2.9812 0.3554,0.9732 0.7228,1.9074 1.0975,2.8323 0.7438,1.8358 1.5321,3.5682 2.3987,5.1651 0,0.015 0,0.031 0.01,0.043 0.2999,0.5514 0.6159,1.1052 0.9356,1.6227 0.1466,0.2371 0.3005,0.4609 0.4517,0.6905 0.2665,0.4052 0.5295,0.7943 0.8112,1.1751 0.2241,0.3033 0.465,0.5963 0.6995,0.8833 0.2171,0.2652 0.4269,0.5298 0.6534,0.7805 0.051,0.056 0.1006,0.1142 0.1521,0.169 0.013,0.02 0.021,0.044 0.036,0.059 0.2653,0.2851 0.5664,0.5631 0.8453,0.8274 0.2949,0.2801 0.594,0.5357 0.9053,0.7913 0.3109,0.2559 0.6264,0.4816 0.9548,0.712 0.3286,0.2304 0.6682,0.4713 1.0151,0.6754 0.036,0.022 0.07,0.044 0.1057,0.067 0.6614,0.3831 1.3744,0.7106 2.107,0.9937 0.3858,0.1495 0.7741,0.2912 1.1812,0.4111 0.4072,0.12 0.8187,0.2157 1.2479,0.3054 0.4293,0.09 0.8886,0.1577 1.3409,0.2162 0.4524,0.058 0.888,0.094 1.3645,0.1202 0.4627,0.025 0.9543,0.064 1.4407,0.058 0.015,0 0.028,-0.01 0.043,-0.01 0.4171,-0.01 0.8471,-0.012 1.2821,-0.042 0.083,-0.01 0.1579,-0.026 0.2419,-0.032 0.5277,-0.042 1.079,-0.1132 1.6336,-0.1903 0.3108,-0.043 0.6218,-0.091 0.9413,-0.1461 0.2556,-0.044 0.4979,-0.099 0.759,-0.1501 0.5828,-0.1135 1.1815,-0.2341 1.7933,-0.3852 0.6118,-0.1511 1.2346,-0.3279 1.8765,-0.5175 0.6384,-0.1889 1.3004,-0.3787 1.9695,-0.6067 0.6729,-0.2293 1.3258,-0.4511 1.9499,-0.6928 0.01,-0.01 0.013,-0.021 0.016,-0.026 0.6153,-0.2386 1.2152,-0.4725 1.7844,-0.7231 0.01,-0.01 0.013,-0.02 0.016,-0.026 0.2202,-0.097 0.4204,-0.2039 0.6337,-0.3028 0.8954,-0.4148 1.7615,-0.8354 2.5413,-1.2806 0.4864,-0.2776 0.9308,-0.5445 1.3741,-0.8338 0.01,-0.01 0.012,-0.019 0.016,-0.026 0.8767,-0.5734 1.6911,-1.154 2.4072,-1.7713 0.01,-0.01 0.012,-0.019 0.017,-0.026 1.4343,-1.2406 2.5707,-2.5667 3.4242,-3.9742 0.01,-0.01 0.011,-0.018 0.017,-0.026 0.2061,-0.3463 0.376,-0.7007 0.5529,-1.0551 0,-0.01 0.011,-0.018 0.016,-0.026 0.1761,-0.3548 0.3542,-0.7242 0.5003,-1.0882 0.2994,-0.7472 0.5221,-1.5051 0.7028,-2.2901 0.01,-0.01 0.012,-0.019 0.016,-0.026 0.088,-0.3832 0.151,-0.7668 0.2123,-1.1587 0.01,-0.01 0.012,-0.019 0.016,-0.026 0.1232,-0.7945 0.189,-1.6218 0.2131,-2.4506 0.024,-0.8383 0.01,-1.6757 -0.058,-2.5475 0.01,-0.01 0.021,-0.015 0.017,-0.026 -0.1325,-1.736 -0.4653,-3.5376 -0.8875,-5.3956 -0.6345,-2.7927 -1.5268,-5.747 -2.5629,-8.7762 -1.3875,-4.0566 -2.9983,-8.2895 -4.4688,-12.671 -0.7337,-2.1866 -1.4378,-4.4016 -2.0561,-6.648 -0.311,-1.1304 -0.5793,-2.2684 -0.8439,-3.4112 -1.05,-4.5352 -1.7113,-9.1435 -1.5767,-13.8049 0.01,-0.01 0.013,-0.02 0.016,-0.026 0.034,-1.1583 0.1109,-2.3388 0.2461,-3.5005 0.2044,-1.7561 0.5133,-3.4948 0.9804,-5.254 0.01,-0.01 0.012,-0.019 0.016,-0.026 0.1537,-0.5768 0.3243,-1.1707 0.5089,-1.7474 0.01,-0.01 0.012,-0.019 0.016,-0.026 0.3735,-1.1629 0.8049,-2.3328 1.3128,-3.4939 0.512,-1.1707 1.1033,-2.3385 1.7633,-3.5058 0.6601,-1.1671 1.3782,-2.3289 2.1971,-3.4911 0.8243,-1.1689 1.6816,-2.2399 2.5676,-3.2581 0.4105,-0.4721 0.8236,-0.9527 1.2464,-1.394 0.1264,-0.1333 0.2607,-0.2528 0.3888,-0.3831 0.3195,-0.3237 0.6378,-0.6369 0.9636,-0.9443 0.038,-0.036 0.071,-0.079 0.1095,-0.1157 0.4199,-0.3927 0.8492,-0.7858 1.279,-1.152 0.049,-0.042 0.1035,-0.084 0.1523,-0.1257 0.4194,-0.3537 0.8372,-0.6833 1.2653,-1.0129 0.9604,-0.7436 1.9264,-1.4426 2.9281,-2.0711 l -17.0438,-13.459 18.8995,6.8729 11.652,-16.5195 21.9117,-1.9025 10.5547,-7.7944 -14.7993,14.5387 -17.9656,0.6196 -7.9404,14.9046 c 0.8766,-0.3765 1.7743,-0.7002 2.6697,-1.0153 0.097,-0.034 0.194,-0.078 0.292,-0.1116 0.8188,-0.2817 1.6447,-0.5321 2.4767,-0.7674 0.9105,-0.2575 1.8416,-0.4899 2.7648,-0.6969 0.9174,-0.2058 1.824,-0.3965 2.7511,-0.5579 0.029,-0.01 0.058,-0.014 0.086,-0.019 0.1248,-0.022 0.2459,-0.041 0.3711,-0.062 0.8243,-0.1374 1.6495,-0.253 2.4789,-0.36 6.689,-0.8625 13.4898,-0.8034 19.9207,-0.7923 0.5526,10e-4 1.1263,-0.018 1.6728,-0.018 2.1675,0 4.2827,-0.01 6.3271,-0.08 0.029,-8e-4 0.057,-0.018 0.085,-0.019 0.825,-0.03 1.6251,-0.048 2.4251,-0.098 0.2055,-0.013 0.4191,-0.037 0.6229,-0.051 0.9956,-0.071 1.9557,-0.1618 2.9059,-0.2758 0.9503,-0.114 1.8811,-0.2611 2.7806,-0.4285 0.4101,-0.076 0.8177,-0.1423 1.2164,-0.2314 0.1297,-0.03 0.2595,-0.058 0.3878,-0.088 0.7798,-0.1841 1.5229,-0.4089 2.2545,-0.6489 0.813,-0.2666 1.603,-0.5748 2.3515,-0.9202 0.3212,-0.1486 0.6501,-0.3028 0.9588,-0.4673 0.078,-0.042 0.1708,-0.059 0.2487,-0.102 0.081,-0.045 0.159,-0.099 0.239,-0.145 0.5812,-0.3332 1.1218,-0.7032 1.6531,-1.1011 0.01,-0.01 0.012,-0.019 0.016,-0.026 0.3207,-0.2412 0.6582,-0.4957 0.9597,-0.7622 0.1845,-0.1636 0.3643,-0.3351 0.5415,-0.5084 0.1084,-0.1066 0.2067,-0.2101 0.3126,-0.3202 0.2387,-0.248 0.4844,-0.5049 0.7081,-0.7729 0.087,-0.1044 0.1845,-0.2031 0.2688,-0.3108 0.1031,-0.13 0.1935,-0.2718 0.2926,-0.4066 0.1056,-0.1434 0.2074,-0.2846 0.3092,-0.4332 0.2217,-0.324 0.429,-0.6554 0.6325,-1.005 0.056,-0.088 0.088,-0.1892 0.1403,-0.281 0.1838,-0.3296 0.3528,-0.649 0.5196,-1.0022 0.1956,-0.4121 0.3919,-0.8616 0.5639,-1.3067 0.1378,-0.356 0.2653,-0.7075 0.3876,-1.0853 0.053,-0.1627 0.1109,-0.3227 0.1605,-0.4897 0.01,-0.032 0.014,-0.063 0.024,-0.096 0.1132,-0.3855 0.2172,-0.7969 0.3151,-1.2047 0.1054,-0.4398 0.2153,-0.8941 0.3023,-1.3606 0.013,-0.067 0.01,-0.1406 0.02,-0.2087 0.01,-0.01 0.012,-0.019 0.016,-0.026 0.067,-0.378 0.1145,-0.7531 0.1692,-1.1488 0.041,-0.293 0.081,-0.5845 0.1154,-0.8874 0.048,-0.4283 0.096,-0.8729 0.1301,-1.3213 0,-0.061 -8e-4,-0.1209 0,-0.1824 0.015,-0.2132 0.023,-0.4245 0.035,-0.6425 0.03,-0.5303 0.051,-1.0648 0.061,-1.6229 0.011,-0.5581 0.024,-1.1391 0.015,-1.7257 -0.01,-0.7108 -0.026,-1.4023 -0.063,-2.0705 -0.057,-1.0307 -0.1666,-2.0157 -0.2856,-2.9491 -0.034,-0.2695 -0.077,-0.5503 -0.1166,-0.8119 0,-0.014 0.022,-0.016 0.017,-0.026 -0.2663,-1.7517 -0.665,-3.329 -1.1478,-4.7471 -0.3235,-0.9497 -0.6875,-1.8373 -1.1015,-2.6501 -0.6211,-1.2193 -1.3291,-2.2896 -2.1397,-3.2298 -0.2703,-0.3134 -0.5486,-0.6121 -0.8386,-0.8971 -0.5799,-0.5698 -1.2149,-1.0823 -1.87,-1.5461 -0.3274,-0.232 -0.6429,-0.4519 -0.9886,-0.6587 -1.0357,-0.6224 -2.1592,-1.1274 -3.3441,-1.5509 -0.7898,-0.2822 -1.606,-0.5262 -2.4555,-0.7331 -0.8496,-0.2069 -1.7279,-0.3699 -2.6319,-0.5117 -3.6159,-0.567 -7.6396,-0.6632 -11.9199,-0.5971 -5.3502,0.083 -11.0921,0.4113 -16.8981,0.3315 -2.3224,-0.032 -4.6655,-0.1353 -6.9883,-0.3365 -1.7421,-0.151 -3.4799,-0.3658 -5.2019,-0.6523 -1.7221,-0.2865 -3.4168,-0.6492 -5.1012,-1.1058 -3.3688,-0.9132 -6.659,-2.2079 -9.7726,-4.0088 -2.0759,-1.2002 -4.0814,-2.6278 -5.992,-4.3251 -0.9553,-0.8487 -1.8711,-1.7564 -2.7773,-2.7447 -0.9062,-0.9884 -1.798,-2.0436 -2.65,-3.1817 -0.4271,-0.5706 -0.8205,-1.1465 -1.207,-1.7197 -0.1959,-0.2905 -0.4012,-0.5952 -0.5868,-0.8862 -0.1749,-0.2746 -0.3415,-0.5613 -0.5075,-0.8364 -0.3473,-0.5757 -0.6724,-1.1479 -0.9817,-1.7256 -0.01,-0.01 -0.02,-0.012 -0.026,-0.016 -0.3022,-0.5651 -0.5753,-1.145 -0.8426,-1.7119 -0.2707,-0.5738 -0.5202,-1.156 -0.7565,-1.7315 -0.2403,-0.5851 -0.464,-1.1646 -0.6703,-1.7511 -0.01,-0.021 -0.028,-0.038 -0.036,-0.059 -0.3865,-1.1057 -0.707,-2.2034 -0.98,-3.3123 -0.011,-0.042 -0.019,-0.086 -0.03,-0.1296 -0.1266,-0.5224 -0.2332,-1.0551 -0.3363,-1.5779 -0.011,-0.058 -0.028,-0.1146 -0.039,-0.1723 -0.01,-0.029 -0.014,-0.058 -0.019,-0.086 -0.017,-0.087 -0.043,-0.1714 -0.059,-0.2586 -0.1168,-0.6367 -0.1916,-1.2719 -0.2757,-1.9088 -0.054,-0.4114 -0.1042,-0.8248 -0.1451,-1.2361 -0.059,-0.5832 -0.1167,-1.1732 -0.1503,-1.7561 -0.033,-0.5828 -0.044,-1.1503 -0.054,-1.7325 -0.01,-0.341 -0.029,-0.6731 -0.027,-1.0138 0,-0.2433 0.01,-0.4856 0.015,-0.7287 0,-0.144 0.01,-0.2899 0.015,-0.4339 0.013,-0.4382 0.036,-0.8905 0.061,-1.3281 0.033,-0.5759 0.076,-1.1542 0.128,-1.7288 0.052,-0.5788 0.1009,-1.1611 0.171,-1.7385 0.07,-0.5775 0.1541,-1.156 0.2406,-1.7316 0.01,-0.069 0.01,-0.1397 0.02,-0.2088 0.1674,-1.0886 0.3814,-2.1606 0.5998,-3.2411 0.2305,-1.1406 0.4927,-2.2634 0.7692,-3.3929 0.2751,-1.1243 0.5555,-2.2581 0.8651,-3.3695 0.026,-0.095 0.044,-0.1936 0.07,-0.2881 0.2874,-1.022 0.6103,-2.0322 0.9172,-3.0413 0.7052,-2.3205 1.4457,-4.6242 2.1778,-6.8634 1.3151,-4.0216 2.5818,-7.8911 3.511,-11.5628 0.1858,-0.7344 0.3413,-1.4804 0.4972,-2.198 0.1558,-0.7177 0.2997,-1.4353 0.4207,-2.1353 0.3377,-1.95495 0.5437,-3.80187 0.5375,-5.60635 -5e-4,-0.11374 -0.01,-0.22433 -0.01,-0.33789 -7e-4,-0.0383 0,-0.0748 0,-0.11311 -0.028,-1.26817 -0.1592,-2.50776 -0.4091,-3.69141 l -11.7781,13.37546 -4.3575,24.8766 -17.4153,4.7321 15.1829,-11.1587 1.8611,-18.9152 -15.1673,6.1469 17.9467,-12.55785 11.0632,-12.53312 c -0.2883,-0.38786 -0.6221,-0.74695 -0.9571,-1.11928 -0.013,-0.0202 -0.021,-0.0425 -0.037,-0.0598 -0.1479,-0.1628 -0.3149,-0.32191 -0.4721,-0.48181 -0.1563,-0.1598 -0.3064,-0.32516 -0.4722,-0.48172 -0.04,-0.0367 -0.076,-0.0729 -0.1157,-0.10949 -0.1984,-0.18394 -0.4091,-0.35908 -0.6211,-0.53857 -0.2124,-0.18091 -0.4378,-0.35233 -0.6641,-0.529 -0.126,-0.0982 -0.2329,-0.20568 -0.3636,-0.30212 -0.5454,-0.40583 -1.1146,-0.78656 -1.739,-1.16768 -0.5338,-0.32412 -1.0968,-0.64542 -1.6899,-0.9525 -0.6315,-0.32771 -1.2824,-0.64651 -1.9844,-0.95353 -0.01,-0.005 -0.018,-0.0112 -0.026,-0.0165 -0.01,-0.005 -0.019,-0.0117 -0.026,-0.0165 -0.5295,-0.23046 -1.1198,-0.43904 -1.6906,-0.65778 -0.1861,-0.071 -0.3623,-0.16655 -0.5527,-0.23673 -0.156,-0.0568 -0.3308,-0.10423 -0.4897,-0.16053 -0.032,-0.008 -0.066,-0.0132 -0.096,-0.0238 -0.6165,-0.21754 -1.227,-0.43039 -1.8894,-0.63532 -0.6208,-0.19199 -1.223,-0.35617 -1.817,-0.51577 -0.052,-0.0136 -0.097,-0.0433 -0.1488,-0.057 -0.5484,-0.14523 -1.0792,-0.26451 -1.6053,-0.38255 -0.099,-0.0224 -0.1901,-0.0488 -0.2881,-0.0703 -0.4274,-0.0927 -0.842,-0.16076 -1.2548,-0.23575 -0.1896,-0.0343 -0.3631,-0.0934 -0.5494,-0.12426 -0.3891,-0.0644 -0.7728,-0.12066 -1.149,-0.16931 -0.1979,-0.0253 -0.3885,-0.05 -0.5827,-0.0714 -0.3263,-0.0359 -0.6306,-0.0551 -0.9472,-0.0792 -0.024,-0.002 -0.045,-0.005 -0.069,-0.007 -0.4692,-0.0348 -0.9229,-0.0418 -1.3713,-0.0507 -0.2638,-0.005 -0.515,-0.009 -0.7717,-0.006 -0.2053,0.003 -0.4054,0.0163 -0.6063,0.0247 -0.023,8.8e-4 -0.046,-0.008 -0.069,-0.007 -0.4244,0.0189 -0.8407,0.0591 -1.2458,0.10211 -0.4275,0.0454 -0.846,0.10006 -1.2526,0.17167 -0.4068,0.0716 -0.8032,0.15101 -1.19,0.24808 -0.2192,0.0549 -0.4238,0.12714 -0.6367,0.19008 -0.1629,0.0483 -0.3313,0.0814 -0.4906,0.13431 -0.3815,0.12622 -0.7459,0.25865 -1.1077,0.41062 -0.3464,0.14531 -0.6727,0.30903 -1.0019,0.47716 -0.033,0.017 -0.069,0.0287 -0.1025,0.0465 -0.2978,0.1549 -0.5787,0.31779 -0.8628,0.49089 -0.059,0.036 -0.1197,0.072 -0.1794,0.10862 -0.2476,0.15575 -0.5126,0.31864 -0.7501,0.48791 -0.092,0.0651 -0.1818,0.13104 -0.2723,0.1979 -0.2066,0.15375 -0.3954,0.31112 -0.5944,0.47519 -0.1085,0.0898 -0.2155,0.1847 -0.3222,0.2772 -0.1691,0.14675 -0.3446,0.30132 -0.5083,0.45558 -0.135,0.12637 -0.2575,0.25147 -0.3887,0.38299 -0.2874,0.28764 -0.5465,0.57814 -0.8176,0.88854 -0.5423,0.62069 -1.0583,1.27787 -1.5432,1.98268 -0.2429,0.35214 -0.4959,0.72224 -0.7253,1.0943 -0.027,0.0442 -0.056,0.0878 -0.083,0.13229 -0.1939,0.32693 -0.3742,0.67337 -0.5634,1.01156 -0.6532,1.17131 -1.2777,2.4313 -1.8435,3.75066 -0.2989,0.69701 -0.591,1.41445 -0.8712,2.14708 -0.07,0.18454 -0.1415,0.38243 -0.2105,0.56914 -0.041,0.10935 -0.064,0.23065 -0.1035,0.34095 -0.3051,0.83134 -0.6064,1.6698 -0.8958,2.53787 -0.3244,0.9736 -0.6413,1.96919 -0.9533,2.98166 -0.01,0.008 -0.012,0.0186 -0.017,0.0262 -0.4572,1.48447 -0.9107,3.02347 -1.3624,4.57033 -0.4789,1.6411 -0.9882,3.3244 -1.4898,5.0071 -0.3269,1.097 -0.6503,2.1819 -0.9974,3.2862 -0.3464,1.1023 -0.7089,2.2044 -1.0835,3.3058 -0.041,0.1217 -0.079,0.2457 -0.1202,0.3675 -0.09,0.2615 -0.1823,0.5261 -0.2742,0.7874 -0.2612,0.7429 -0.53,1.4855 -0.8086,2.2235 -0.398,1.0554 -0.7957,2.0971 -1.2354,3.1364 -0.1853,0.4391 -0.3963,0.855 -0.5903,1.2901 -0.2211,0.496 -0.4477,1.0015 -0.6805,1.4918 -0.064,0.1338 -0.1155,0.2701 -0.1805,0.4033 -0.3484,0.7207 -0.7198,1.4475 -1.0965,2.153 -0.447,0.838 -0.9181,1.6608 -1.4089,2.4734 -0.296,0.491 -0.6016,0.9746 -0.9155,1.4546 -0.3195,0.4889 -0.6466,0.971 -0.9855,1.4476 -0.3381,0.4772 -0.6796,0.9504 -1.0379,1.4145 -0.358,0.4637 -0.712,0.9314 -1.0907,1.3812 -0.01,0.01 -0.011,0.018 -0.016,0.026 -0.088,0.1039 -0.1802,0.2074 -0.2697,0.3102 -0.2651,0.3085 -0.5417,0.5876 -0.8176,0.8885 -0.024,0.02 -0.026,0.06 -0.05,0.08 -0.2281,0.248 -0.482,0.487 -0.7177,0.7298 -0.1704,0.1751 -0.3412,0.3526 -0.5151,0.5251 -0.337,0.3339 -0.6713,0.6573 -1.0233,0.9806 -0.095,0.088 -0.1824,0.1809 -0.2793,0.2673 -0.223,0.2003 -0.4751,0.3948 -0.7041,0.5908 -0.2311,0.1983 -0.4662,0.3972 -0.7041,0.5907 -0.4684,0.3809 -0.9506,0.7596 -1.4445,1.1218 -0.2504,0.1836 -0.4997,0.3788 -0.7569,0.5574 l 0.4564,5.4935 12.7716,3.644 -14.5857,0.2359 3.682,11.1052 21.3142,9.0203 -3.0276,13.7871 -1.4842,-11.605 -18.8996,-6.8729 -15.3496,10.4262 10.0046,-11.9071 -4.1315,-11.388 6.3917,-10.1561 c -0.3739,0.2117 -0.7674,0.3994 -1.1546,0.6026 -0.034,0.018 -0.069,0.029 -0.1034,0.046 -0.5624,0.2933 -1.1376,0.5962 -1.7285,0.8691 -0.6093,0.2816 -1.2373,0.5553 -1.8773,0.8123 -0.055,0.022 -0.1068,0.061 -0.1629,0.082 -0.589,0.2334 -1.1886,0.4269 -1.8039,0.6371 -0.014,0 0,0.026 -0.016,0.026 -0.6653,0.2266 -1.3405,0.4017 -1.996,0.59 -0.014,0 -0.01,0.027 -0.016,0.026 -1.9885,0.5699 -3.9191,0.9686 -5.8206,1.2107 -2.5353,0.3228 -4.9996,0.3661 -7.3908,0.1855 -26.3026,-1.9855 -44.238,-31.6628 -61.8481,-28.512 -0.3931,0.07 -0.7971,0.1443 -1.19,0.2481 -0.014,0 0,0.026 -0.016,0.026 -0.3924,0.1042 -0.7947,0.2218 -1.187,0.3606 -0.014,0 -0.013,0.021 -0.016,0.026 -0.3922,0.1395 -0.8015,0.2546 -1.1939,0.4301 -0.01,0.01 -0.013,0.02 -0.016,0.026 -0.392,0.1762 -0.7887,0.3724 -1.181,0.586 -0.01,0.01 -0.012,0.019 -0.016,0.026 -0.3924,0.2142 -0.7854,0.4455 -1.1781,0.6985 -0.01,0.01 -0.012,0.019 -0.017,0.026 -0.393,0.2538 -0.8079,0.5004 -1.2016,0.7945 -0.01,0.01 -0.012,0.019 -0.016,0.026 -0.3939,0.2951 -0.7942,0.6138 -1.1889,0.9503 -0.01,0.01 -0.012,0.019 -0.016,0.026 -0.3949,0.3374 -0.7899,0.6825 -1.1858,1.0628 -0.01,0.01 -0.012,0.019 -0.017,0.026 -0.3963,0.3815 -0.802,0.776 -1.1995,1.2019 -0.01,0.01 -0.011,0.018 -0.016,0.026 -0.3979,0.4271 -0.7875,0.8848 -1.1868,1.3576 -0.01,0.01 -0.011,0.018 -0.016,0.026 -0.4,0.474 -0.7992,0.9752 -1.2005,1.4968 -0.01,0.01 -0.01,0.018 -0.016,0.026 -0.402,0.5224 -0.8107,1.0644 -1.2142,1.6358 -0.01,0.01 -0.01,0.017 -0.017,0.026 -0.4037,0.5719 -0.7771,1.1314 -1.1344,1.686 -0.01,0.01 -0.011,0.017 -0.016,0.026 -0.7011,1.0858 -1.3083,2.1407 -1.8417,3.1609 -0.022,0.035 -0.045,0.071 -0.067,0.1058 -0.268,0.5178 -0.5134,1.0265 -0.7403,1.528 -0.01,0.01 -0.011,0.018 -0.016,0.026 -0.2256,0.5011 -0.4249,1.0131 -0.6108,1.4986 -0.01,0.01 -0.011,0.018 -0.016,0.026 -0.185,0.4847 -0.3453,0.9563 -0.4914,1.4261 -0.01,0.01 -0.011,0.018 -0.017,0.026 -0.1453,0.4693 -0.2543,0.9414 -0.3621,1.3968 -0.01,0.01 -0.012,0.019 -0.017,0.026 -0.2146,0.9185 -0.3467,1.7903 -0.4158,2.6553 -0.01,0.01 -0.012,0.019 -0.016,0.026 -0.034,0.428 -0.027,0.8594 -0.027,1.2753 -0.01,0.01 -0.013,0.02 -0.016,0.026 4e-4,0.4154 0.016,0.8087 0.049,1.2125 -0.01,0.01 -0.013,0.021 -0.016,0.026 0.034,0.4041 0.097,0.8163 0.1618,1.2095 0,0.014 -0.014,0.022 -0.017,0.026 0.066,0.3935 0.1685,0.7806 0.2647,1.1636 0.7875,3.1217 2.57,5.916 5.0016,8.5387 3.3436,3.6062 7.944,6.9001 12.9297,10.3159 1.8132,1.2415 3.6755,2.4956 5.5532,3.7902 1.8768,1.2959 3.769,2.6317 5.6286,4.0225 2.7895,2.0862 5.5112,4.2977 8.0318,6.7164 1.6806,1.6117 3.2618,3.3006 4.7208,5.1126 0.7294,0.9063 1.4095,1.8514 2.0681,2.8156 1.6471,2.4097 3.0658,4.9946 4.1593,7.8238 0.4398,1.1384 0.836,2.3259 1.1682,3.5414 0.4944,1.8047 0.8833,3.695 1.1118,5.6845 0,0.014 -0.022,0.016 -0.017,0.026 0.075,0.6579 0.1389,1.3186 0.1825,1.998 -0.01,0.01 -0.013,0.02 -0.016,0.026 0.044,0.6881 0.079,1.3764 0.089,2.0872 0,0.1004 0,0.1951 -0,0.2948 l 11.0332,-6.0903 20.9464,0.6286 -14.2525,1.7011 -18.599,12.4797 c -0.064,0.2916 -0.1411,0.5766 -0.2113,0.864 -0.1307,0.5341 -0.257,1.0688 -0.4091,1.5887 -0.039,0.1332 -0.097,0.2612 -0.1368,0.3939 -0.148,0.4854 -0.2989,0.9696 -0.465,1.4428 -0.025,0.07 -0.065,0.1321 -0.09,0.2016 -0.1926,0.5383 -0.3763,1.0619 -0.5913,1.5849 -0.1814,0.4402 -0.3676,0.8768 -0.5639,1.3066 -0.083,0.1822 -0.1515,0.3722 -0.2367,0.5526 -0.2222,0.4676 -0.4705,0.9071 -0.7098,1.3625 -0.1166,0.2209 -0.2265,0.4499 -0.347,0.6678 -0.4374,0.7945 -0.9099,1.5753 -1.3957,2.334 -0.011,0.018 -0.022,0.036 -0.033,0.053 -0.2776,0.4412 -0.5639,0.8773 -0.8585,1.3059 -0.033,0.053 -0.067,0.1062 -0.1,0.1587 -0.5835,0.8331 -1.2173,1.6234 -1.8527,2.4156 -0.3443,0.4288 -0.693,0.8412 -1.0506,1.2588 -0.7016,0.8193 -1.4263,1.6191 -2.174,2.398 -0.6552,0.6828 -1.3255,1.3664 -2.0104,2.021 -0.1168,0.1124 -0.237,0.219 -0.3554,0.3301 -0.7471,0.7046 -1.4951,1.4045 -2.2689,2.0799 -0.032,0.028 -0.061,0.061 -0.093,0.089 -0.7856,0.6835 -1.5958,1.3395 -2.4011,1.9965 -0.061,0.05 -0.1342,0.086 -0.1961,0.1351 -0.504,0.4094 -1.0019,0.8273 -1.511,1.2275 -0.5763,0.4531 -1.153,0.9036 -1.7334,1.3461 -0.5708,0.4352 -1.1541,0.8503 -1.7264,1.2766 -0.5447,0.4056 -1.0634,0.8055 -1.6071,1.204 -0.8928,0.6544 -1.7631,1.2773 -2.6461,1.9163 -0.9489,0.6869 -1.8724,1.3671 -2.7988,2.0417 -1.0118,0.7364 -1.9978,1.465 -2.9683,2.1935 -0.728,0.5467 -1.4443,1.0971 -2.1416,1.643 -0.063,0.049 -0.1332,0.086 -0.1961,0.1351 -0.7555,0.594 -1.488,1.1946 -2.1984,1.7918 -1.3271,1.1157 -2.5465,2.2272 -3.6743,3.3739 -0.08,0.082 -0.1569,0.176 -0.2355,0.2579 -0.415,0.4287 -0.7985,0.8524 -1.1801,1.2881 -0.1687,0.1929 -0.3429,0.374 -0.5053,0.5682 -0.1209,0.1452 -0.2352,0.2968 -0.3521,0.443 -0.2728,0.3415 -0.538,0.6709 -0.7882,1.0178 -0.4573,0.6327 -0.8828,1.2863 -1.258,1.9407 -0.04,0.063 -0.077,0.1223 -0.1165,0.1851 -0.053,0.1035 -0.1022,0.2056 -0.1569,0.3074 -0.5014,0.9358 -0.9101,1.8953 -1.2247,2.8847 -0.016,0.05 -0.041,0.099 -0.057,0.1488 -0.01,0.032 -0.014,0.065 -0.024,0.096 -0.01,0.01 -0.011,0.018 -0.017,0.026 -0.2103,0.7063 -0.3749,1.433 -0.4804,2.1715 0,0.024 0,0.046 -0.01,0.069 -0.047,0.3432 -0.079,0.6924 -0.1027,1.0431 0,0.059 -8e-4,0.1233 0,0.1823 -0.023,0.4132 -0.022,0.8245 -0.011,1.2488 0.01,0.3081 0.01,0.6299 0.034,0.9442 0.01,0.1192 0.022,0.2343 0.035,0.3545 0,0.037 0,0.076 0,0.1128 0.046,0.4002 0.1277,0.7892 0.2049,1.1998 0.084,0.4482 0.1913,0.9178 0.3137,1.3789 0.061,0.2303 0.1124,0.4727 0.1833,0.7062 0.07,0.2313 0.1466,0.4617 0.2264,0.6963 0.01,0.021 0.029,0.039 0.036,0.059 0.4839,1.4049 1.1455,2.8611 1.997,4.3953 0.8644,1.5574 1.9199,3.1853 3.1978,4.8926 0.2171,0.29 0.4304,0.5732 0.6466,0.85 l 12.1044,-7.5577 -0.6197,-17.9657 16.4346,2.8107 -12.171,2.3834 1.9181,16.8998 -13.1238,8.3562 c 0.3662,0.3287 0.7358,0.657 1.1001,0.9508 0.824,0.6645 1.6398,1.2353 2.4558,1.7302 z"
       id="path4707"
       inkscape:connector-curvature="0" />
    <rect
       style="fill:url(#linearGradient4820);fill-opacity:1;fill-rule:nonzero;stroke:none"
       id="rect3993-0-8-1"
       width="83.48539"
       height="12.816584"
       x="-812.31494"
       y="1486.3308"
       transform="matrix(0.1848976,-0.98275779,0.98275779,0.1848976,0,0)" />
    <path
       inkscape:connector-curvature="0"
       style="fill:#332f2b;fill-opacity:0;fill-rule:nonzero;stroke:none"
       d="m 1334.2621,996.94398 -9.2811,-13.93273 -18.6224,92.93705 13.9359,-9.2975 -5.5791,-8.3753 c 1.2989,-0.9489 2.269,-2.3537 2.61,-4.0552 0.3647,-1.8203 -0.045,-3.6096 -1.009,-5.0348 l 8.6329,-5.765 -5.6182,-8.4339 c 1.5865,-0.9267 2.7881,-2.49 3.1775,-4.4333 0.3605,-1.7993 -0.046,-3.562 -0.9863,-4.9793 l 0,-0.016 8.0785,-5.3673 -5.5889,-8.4111 c 1.4189,-0.9453 2.4702,-2.4275 2.8317,-4.2313 0.3614,-1.8039 -0.038,-3.5766 -0.9829,-4.9956 l 8.3981,-5.60842 z"
       id="rect4583-5-6" />
    <rect
       style="fill:url(#linearGradient4855);fill-opacity:1;fill-rule:nonzero;stroke:none"
       id="rect3993-0-8-1-0"
       width="83.48539"
       height="12.816584"
       x="1236.6898"
       y="1226.6733"
       transform="matrix(0.99747916,-0.07095996,0.07095996,0.99747916,0,0)" />
    <path
       inkscape:connector-curvature="0"
       style="fill:#332f2b;fill-opacity:0;fill-rule:nonzero;stroke:none"
       d="m 1400.3365,1139.436 11.1163,-12.5176 -94.6183,5.6108 12.5343,11.1151 6.6822,-7.5246 c 1.2479,1.015 2.8531,1.5962 4.5854,1.4936 1.8532,-0.11 3.4796,-0.961 4.613,-2.2556 l 7.7699,6.8841 6.729,-7.5773 c 1.2995,1.2989 3.1168,2.0637 5.0953,1.9464 1.8318,-0.1087 3.4333,-0.9499 4.5651,-2.2195 l 0.015,0 7.2443,6.449 6.7143,-7.5432 c 1.2749,1.1321 2.9757,1.7721 4.8121,1.6633 1.8365,-0.109 3.4495,-0.9458 4.5817,-2.2204 l 7.5588,6.6969 z"
       id="rect4583-5-6-5" />
    <rect
       style="fill:url(#linearGradient4855-4);fill-opacity:1;fill-rule:nonzero;stroke:none"
       id="rect3993-0-8-1-9"
       width="83.48539"
       height="12.816584"
       x="1572.442"
       y="-700.29608"
       transform="matrix(0.39130631,0.92026049,-0.92026049,0.39130631,0,0)" />
    <path
       inkscape:connector-curvature="0"
       style="fill:#332f2b;fill-opacity:0;fill-rule:nonzero;stroke:none"
       d="m 1282.2573,1249.5909 15.4509,6.4442 -36.0588,-87.6576 -6.4378,15.4663 9.2879,3.8738 c -0.5544,1.51 -0.5823,3.217 0.078,4.8219 0.7063,1.7169 2.0398,2.9784 3.6324,3.6295 l -3.985,9.5855 9.353,3.9008 c -0.806,1.6511 -0.9386,3.6184 -0.1846,5.4513 0.6981,1.6971 2.0142,2.9382 3.5827,3.5959 l 0.01,0.013 -3.7443,8.9471 9.3159,3.8981 c -0.6562,1.5736 -0.7087,3.3901 -0.01,5.0914 0.6999,1.7014 2.0156,2.9548 3.5889,3.6113 l -3.8764,9.3251 z"
       id="rect4583-5-6-9" />
    <rect
       style="fill:url(#linearGradient4855-5);fill-opacity:1;fill-rule:nonzero;stroke:none"
       id="rect3993-0-8-1-07"
       width="83.614471"
       height="20.507185"
       x="93.57003"
       y="-1653.8628"
       transform="matrix(-0.6838995,0.72957623,-0.77036153,-0.63760734,0,0)" />
    <path
       inkscape:connector-curvature="0"
       style="fill:#332f2b;fill-opacity:0;fill-rule:nonzero;stroke:none"
       d="m 1147.3335,1169.8183 0.7608,16.7238 63.9069,-70.0001 -16.7348,0.7733 0.4574,10.053 c -1.6023,0.1426 -3.1581,0.8454 -4.3282,2.1269 -1.2517,1.3711 -1.824,3.1152 -1.7336,4.8334 l -10.3696,0.4837 0.4606,10.1234 c -1.8371,-0.025 -3.673,0.6943 -5.0093,2.158 -1.2373,1.3552 -1.7986,3.0749 -1.7245,4.7741 l -0.01,0.014 -9.6895,0.4291 0.4473,10.0888 c -1.7032,0.078 -3.3685,0.8047 -4.6089,2.1633 -1.2404,1.3587 -1.813,3.0833 -1.7358,4.7864 l -10.0877,0.4707 z"
       id="rect4583-5-6-6" />
    <rect
       style="fill:url(#linearGradient4855-44);fill-opacity:1;fill-rule:nonzero;stroke:none"
       id="rect3993-0-8-1-1"
       width="83.48539"
       height="12.816584"
       x="-1601.4871"
       y="-298.98495"
       transform="matrix(-0.86796236,-0.49662999,0.49662999,-0.86796236,0,0)" />
    <path
       inkscape:connector-curvature="0"
       style="fill:#332f2b;fill-opacity:0;fill-rule:nonzero;stroke:none"
       d="m 1177.3468,1007.4543 -16.2043,4.2048 81.7086,48.0395 -4.2193,-16.2127 -9.7408,2.5277 c -0.471,-1.5381 -1.4805,-2.9148 -2.9764,-3.7944 -1.6004,-0.9409 -3.4252,-1.1399 -5.0875,-0.696 l -2.619,-10.0451 -9.8089,2.5454 c -0.3559,-1.8025 -1.4393,-3.4499 -3.1478,-4.4544 -1.5819,-0.93 -3.3805,-1.1234 -5.0277,-0.6993 l -0.015,-0.01 -2.4247,-9.391 -9.7779,2.5252 c -0.4283,-1.6503 -1.4843,-3.1291 -3.0702,-4.0616 -1.586,-0.9324 -3.3917,-1.1357 -5.0419,-0.7078 l -2.5479,-9.7719 z"
       id="rect4583-5-6-95" />
    <path
       sodipodi:type="arc"
       style="fill:#a260aa;fill-opacity:0.87765958;fill-rule:nonzero;stroke:none"
       id="path4933"
       sodipodi:cx="1352.8589"
       sodipodi:cy="398.05389"
       sodipodi:rx="23.05587"
       sodipodi:ry="23.05587"
       d="m 1375.9148,398.05389 a 23.05587,23.05587 0 1 1 -46.1118,0 23.05587,23.05587 0 1 1 46.1118,0 z"
       transform="translate(0,796.3598)" />
    <rect
       style="fill:#332f2b;fill-opacity:1;fill-rule:nonzero;stroke:none"
       id="rect4937"
       width="84.725761"
       height="4.2301631"
       x="1153.4143"
       y="1235.0637"
       transform="matrix(0.99701516,-0.07720597,0.13744461,0.99050945,0,0)"
       rx="5.4840946"
       ry="3.3443723" />
    <path
       style="fill:#332f2b;fill-opacity:1;fill-rule:nonzero;stroke:none"
       d="m 1145.6697,1177.4936 7.5091,7.3837 58.87,-59.8707 -7.5091,-7.3837 -58.87,59.8707 z m 29.1785,-27.3123 c 1.0853,-1.1536 2.6952,-1.4647 3.9124,-0.9033 l 7.8987,-8.4343 c -0.5737,-0.9343 -0.7311,-1.8638 -0.2397,-2.3859 0.4911,-0.5222 1.4924,-0.4768 2.47,0.029 l 2.7577,-2.9386 c 0.9967,-1.0608 1.9273,-1.9117 2.7611,-2.5853 -0.5011,-0.8789 -0.5586,-1.7721 -0.081,-2.2798 0.6868,-0.7298 2.2322,-0.387 3.4641,0.7559 1.2321,1.1428 1.6452,2.663 0.9588,3.3929 -0.6435,0.6844 -2.0057,0.4352 -3.194,-0.5404 -0.6097,0.8417 -1.3577,1.7829 -2.302,2.7869 l -2.6576,2.8369 c 0.8473,1.0719 1.0672,2.2757 0.4935,2.8854 -0.5732,0.6101 -1.7397,0.3914 -2.8737,-0.3756 l -7.9988,8.5358 c 0.3148,1.0833 0.017,2.3919 -0.8993,3.3662 -0.9161,0.9743 -2.2021,1.3326 -3.3112,1.0942 l -7.9461,8.4377 c 0.7473,1.0846 0.952,2.2143 0.3794,2.8232 -0.5731,0.61 -1.746,0.5299 -2.8872,-0.1386 l -3.4607,3.6978 c -0.9438,1.004 -1.8795,1.8001 -2.6834,2.4616 1.0902,1.2324 1.5217,2.571 0.9473,3.1816 -0.657,0.6982 -2.362,0.197 -3.8178,-1.1537 -1.4554,-1.3511 -2.1139,-3.0347 -1.4572,-3.7331 0.5376,-0.5709 1.7725,-0.2961 3.0048,0.5546 0.6117,-0.8477 1.4202,-1.8015 2.3743,-2.8159 l 3.4354,-3.6722 c -0.8831,-1.149 -1.1428,-2.4199 -0.5298,-3.0713 0.613,-0.6519 1.8977,-0.4875 3.1129,0.3108 l 7.721,-8.2088 c -0.6467,-1.1677 -0.4364,-2.7592 0.6481,-3.9129 z"
       id="rect4937-5"
       inkscape:connector-curvature="0" />
    <path
       sodipodi:type="star"
       style="fill:#eec469;fill-opacity:1;fill-rule:nonzero;stroke:none"
       id="path4996-4"
       sodipodi:sides="5"
       sodipodi:cx="972.30322"
       sodipodi:cy="572.32654"
       sodipodi:r1="157.87247"
       sodipodi:r2="77.673256"
       sodipodi:arg1="0.78539816"
       sodipodi:arg2="1.4137167"
       inkscape:flatsided="false"
       inkscape:rounded="0.49"
       inkscape:randomized="0"
       d="m 1083.9359,683.95923 c -36.5301,36.53008 -48.4566,-42.99734 -99.4819,-34.91572 -51.0253,8.08161 -37.79279,87.40218 -83.82338,63.94843 -46.03059,-23.45376 25.91898,-59.37189 2.46522,-105.40248 -23.45375,-46.03059 -94.80303,-8.93431 -86.72141,-59.95962 8.08161,-51.0253 64.47542,6.30349 101.00551,-30.22659 36.53008,-36.53008 -20.79871,-92.92389 30.22659,-101.00551 51.0253,-8.08161 13.92902,63.26766 59.95957,86.72142 46.0306,23.45376 81.9488,-48.49581 105.4025,-2.46522 23.4538,46.03059 -55.8668,32.79807 -63.9484,83.82337 -8.0816,51.0253 71.4458,62.95184 34.9157,99.48192 z"
       transform="matrix(1.1662638,0,0,1.1662638,630.46936,942.51871)"
       inkscape:transform-center-x="6.7517111"
       inkscape:transform-center-y="-6.7517145" />
    <path
       sodipodi:type="star"
       style="fill:#ff005a;fill-opacity:1;fill-rule:nonzero;stroke:none"
       id="path4996-7"
       sodipodi:sides="5"
       sodipodi:cx="972.30322"
       sodipodi:cy="572.32654"
       sodipodi:r1="157.87247"
       sodipodi:r2="77.673256"
       sodipodi:arg1="0.78539816"
       sodipodi:arg2="1.4137167"
       inkscape:flatsided="false"
       inkscape:rounded="0.49"
       inkscape:randomized="0"
       d="m 1083.9359,683.95923 c -36.5301,36.53008 -48.4566,-42.99734 -99.4819,-34.91572 -51.0253,8.08161 -37.79279,87.40218 -83.82338,63.94843 -46.03059,-23.45376 25.91898,-59.37189 2.46522,-105.40248 -23.45375,-46.03059 -94.80303,-8.93431 -86.72141,-59.95962 8.08161,-51.0253 64.47542,6.30349 101.00551,-30.22659 36.53008,-36.53008 -20.79871,-92.92389 30.22659,-101.00551 51.0253,-8.08161 13.92902,63.26766 59.95957,86.72142 46.0306,23.45376 81.9488,-48.49581 105.4025,-2.46522 23.4538,46.03059 -55.8668,32.79807 -63.9484,83.82337 -8.0816,51.0253 71.4458,62.95184 34.9157,99.48192 z"
       transform="translate(791.16566,1036.7134)"
       inkscape:transform-center-x="5.7891787"
       inkscape:transform-center-y="-5.7891787" />
    <path
       transform="translate(-20.080878,1045.8094)"
       sodipodi:type="arc"
       style="fill:#a260aa;fill-opacity:0.87765958;fill-rule:nonzero;stroke:none"
       id="path4933-8"
       sodipodi:cx="1352.8589"
       sodipodi:cy="398.05389"
       sodipodi:rx="23.05587"
       sodipodi:ry="23.05587"
       d="m 1375.9148,398.05389 a 23.05587,23.05587 0 1 1 -46.1118,0 23.05587,23.05587 0 1 1 46.1118,0 z" />
    <path
       transform="translate(-372.01757,1217.6129)"
       sodipodi:type="arc"
       style="fill:#59cfaa;fill-opacity:0.87765957999999999;fill-rule:nonzero;stroke:none"
       id="path4933-81"
       sodipodi:cx="1352.8589"
       sodipodi:cy="398.05389"
       sodipodi:rx="23.05587"
       sodipodi:ry="23.05587"
       d="m 1375.9148,398.05389 a 23.05587,23.05587 0 1 1 -46.1118,0 23.05587,23.05587 0 1 1 46.1118,0 z" />
    <path
       transform="translate(-116.91553,1377.9627)"
       sodipodi:type="arc"
       style="fill:#eec469;fill-opacity:0.87765957999999999;fill-rule:nonzero;stroke:none"
       id="path4933-5"
       sodipodi:cx="1352.8589"
       sodipodi:cy="398.05389"
       sodipodi:rx="23.05587"
       sodipodi:ry="23.05587"
       d="m 1375.9148,398.05389 a 23.05587,23.05587 0 1 1 -46.1118,0 23.05587,23.05587 0 1 1 46.1118,0 z" />
    <rect
       style="fill:#000000;fill-opacity:0.51595747;fill-rule:nonzero;stroke:none"
       id="rect5023-7-3-2"
       width="151.12137"
       height="151.12137"
       x="1082.4802"
       y="1505.942" />
    <rect
       style="fill:#000000;fill-opacity:0.51595746;fill-rule:nonzero;stroke:none"
       id="rect5023-7-3-4"
       width="176.40849"
       height="176.40849"
       x="1069.8367"
       y="1493.2985" />
    <path
       style="fill:url(#radialGradient5193);fill-opacity:1;fill-rule:nonzero;stroke:none"
       d="m 988.23034,1767.6372 0,162.5312 162.53126,0 0,-162.5312 -162.53126,0 z m 5.7187,5.7187 151.09376,0 0,151.0937 -151.09376,0 0,-151.0937 z"
       id="rect5023-7-3-4-2"
       inkscape:connector-curvature="0" />
    <rect
       style="fill:#000000;fill-opacity:0.51595746;fill-rule:nonzero;stroke:none"
       id="rect5023-7-3-2-0"
       width="151.12137"
       height="151.12137"
       x="993.93518"
       y="1773.342" />
  </g>
</svg>
