<?xml version="1.0" encoding="UTF-8" standalone="no"?>
<!-- Created with Inkscape (http://www.inkscape.org/) -->

<svg
   xmlns:dc="http://purl.org/dc/elements/1.1/"
   xmlns:cc="http://creativecommons.org/ns#"
   xmlns:rdf="http://www.w3.org/1999/02/22-rdf-syntax-ns#"
   xmlns:svg="http://www.w3.org/2000/svg"
   xmlns="http://www.w3.org/2000/svg"
   xmlns:sodipodi="http://sodipodi.sourceforge.net/DTD/sodipodi-0.dtd"
   xmlns:inkscape="http://www.inkscape.org/namespaces/inkscape"
   width="256"
   height="256"
   id="svg2989"
   version="1.1"
   inkscape:version="0.48.4 r9939"
   sodipodi:docname="CheckerboardBackground.svg"
   inkscape:export-filename="C:\Users\Anthony\Desktop\Projects\SparkHouse\SpaceRace\Assets\Sprites\BGs\CheckerboardBackground.png"
   inkscape:export-xdpi="511.91852"
   inkscape:export-ydpi="511.91852">
  <defs
     id="defs2991" />
  <sodipodi:namedview
     id="base"
     pagecolor="#ffffff"
     bordercolor="#666666"
     borderopacity="1.0"
     inkscape:pageopacity="0.0"
     inkscape:pageshadow="2"
     inkscape:zoom="1.34456"
     inkscape:cx="108.83539"
     inkscape:cy="134.46778"
     inkscape:document-units="px"
     inkscape:current-layer="layer1"
     showgrid="false"
     units="px"
     inkscape:window-width="1600"
     inkscape:window-height="837"
     inkscape:window-x="-8"
     inkscape:window-y="-8"
     inkscape:window-maximized="1"
     inkscape:snap-bbox="true"
     inkscape:bbox-paths="true"
     inkscape:snap-bbox-edge-midpoints="true"
     inkscape:snap-bbox-midpoints="true"
     inkscape:object-paths="true"
     inkscape:object-nodes="true"
     inkscape:snap-intersection-paths="true"
     inkscape:snap-smooth-nodes="true"
     inkscape:snap-midpoints="true" />
  <metadata
     id="metadata2994">
    <rdf:RDF>
      <cc:Work
         rdf:about="">
        <dc:format>image/svg+xml</dc:format>
        <dc:type
           rdf:resource="http://purl.org/dc/dcmitype/StillImage" />
        <dc:title></dc:title>
      </cc:Work>
    </rdf:RDF>
  </metadata>
  <g
     inkscape:label="Layer 1"
     inkscape:groupmode="layer"
     id="layer1"
     transform="translate(0,-796.3598)">
    <path
       style="fill:#ffffff;fill-opacity:1;fill-rule:nonzero;stroke:none"
       d="m 25.118492,802.4848 0,22.34375 22.28125,0 0,-22.34375 -22.28125,0 z m 22.28125,22.34375 0,22.34375 22.34375,0 0,-22.34375 -22.34375,0 z m 22.34375,0 22.34375,0 0,-22.34375 -22.34375,0 0,22.34375 z m 22.34375,0 0,22.34375 22.343748,0 0,-22.34375 -22.343748,0 z m 22.343748,0 22.34375,0 0,-22.34375 -22.34375,0 0,22.34375 z m 22.34375,0 0,22.34375 22.3125,0 0,-22.34375 -22.3125,0 z m 22.3125,0 22.34375,0 0,-22.34375 -22.34375,0 0,22.34375 z m 22.34375,0 0,22.34375 22.34375,0 0,-22.34375 -22.34375,0 z m 22.34375,0 22.34375,0 0,-22.34375 -22.34375,0 0,22.34375 z m 0,22.34375 0,22.34375 22.34375,0 0,-22.34375 -22.34375,0 z m 0,22.34375 -22.34375,0 0,22.34375 22.34375,0 0,-22.34375 z m 0,22.34375 0,22.34375 22.34375,0 0,-22.34375 -22.34375,0 z m 0,22.34375 -22.34375,0 0,22.34375 22.34375,0 0,-22.34375 z m 0,22.34375 0,22.34375 22.34375,0 0,-22.34375 -22.34375,0 z m 0,22.34375 -22.34375,0 0,22.34375 22.34375,0 0,-22.34375 z m 0,22.34375 0,22.3437 22.34375,0 0,-22.3437 -22.34375,0 z m 0,22.3437 -22.34375,0 0,22.3438 22.34375,0 0,-22.3438 z m 0,22.3438 0,22.3438 22.34375,0 0,-22.3438 -22.34375,0 z m -22.34375,0 -22.34375,0 0,22.3438 22.34375,0 0,-22.3438 z m -22.34375,0 0,-22.3438 -22.3125,0 0,22.3438 22.3125,0 z m -22.3125,0 -22.34375,0 0,22.3438 22.34375,0 0,-22.3438 z m -22.34375,0 0,-22.3438 -22.343748,0 0,22.3438 22.343748,0 z m -22.343748,0 -22.34375,0 0,22.3438 22.34375,0 0,-22.3438 z m -22.34375,0 0,-22.3438 -22.34375,0 0,22.3438 22.34375,0 z m -22.34375,0 -22.28125,0 0,22.3438 22.28125,0 0,-22.3438 z m 0,-22.3438 0,-22.3437 -22.28125,0 0,22.3437 22.28125,0 z m 0,-22.3437 22.34375,0 0,-22.34375 -22.34375,0 0,22.34375 z m 0,-22.34375 0,-22.34375 -22.28125,0 0,22.34375 22.28125,0 z m 0,-22.34375 22.34375,0 0,-22.34375 -22.34375,0 0,22.34375 z m 0,-22.34375 0,-22.34375 -22.28125,0 0,22.34375 22.28125,0 z m 0,-22.34375 22.34375,0 0,-22.34375 -22.34375,0 0,22.34375 z m 0,-22.34375 0,-22.34375 -22.28125,0 0,22.34375 22.28125,0 z m 22.34375,0 22.34375,0 0,-22.34375 -22.34375,0 0,22.34375 z m 22.34375,0 0,22.34375 22.343748,0 0,-22.34375 -22.343748,0 z m 22.343748,0 22.34375,0 0,-22.34375 -22.34375,0 0,22.34375 z m 22.34375,0 0,22.34375 22.3125,0 0,-22.34375 -22.3125,0 z m 22.3125,0 22.34375,0 0,-22.34375 -22.34375,0 0,22.34375 z m 0,22.34375 0,22.34375 22.34375,0 0,-22.34375 -22.34375,0 z m 0,22.34375 -22.3125,0 0,22.34375 22.3125,0 0,-22.34375 z m 0,22.34375 0,22.34375 22.34375,0 0,-22.34375 -22.34375,0 z m 0,22.34375 -22.3125,0 0,22.34375 22.3125,0 0,-22.34375 z m 0,22.34375 0,22.3437 22.34375,0 0,-22.3437 -22.34375,0 z m -22.3125,0 -22.34375,0 0,22.3437 22.34375,0 0,-22.3437 z m -22.34375,0 0,-22.34375 -22.343748,0 0,22.34375 22.343748,0 z m -22.343748,0 -22.34375,0 0,22.3437 22.34375,0 0,-22.3437 z m 0,-22.34375 0,-22.34375 -22.34375,0 0,22.34375 22.34375,0 z m 0,-22.34375 22.343748,0 0,-22.34375 -22.343748,0 0,22.34375 z m 0,-22.34375 0,-22.34375 -22.34375,0 0,22.34375 22.34375,0 z m 22.343748,0 22.34375,0 0,-22.34375 -22.34375,0 0,22.34375 z m 0,22.34375 0,22.34375 22.34375,0 0,-22.34375 -22.34375,0 z"
       id="rect3014-1"
       inkscape:connector-curvature="0" />
  </g>
</svg>
