<?xml version="1.0" encoding="UTF-8" standalone="no"?>
<!-- Created with Inkscape (http://www.inkscape.org/) -->

<svg
   xmlns:dc="http://purl.org/dc/elements/1.1/"
   xmlns:cc="http://creativecommons.org/ns#"
   xmlns:rdf="http://www.w3.org/1999/02/22-rdf-syntax-ns#"
   xmlns:svg="http://www.w3.org/2000/svg"
   xmlns="http://www.w3.org/2000/svg"
   xmlns:sodipodi="http://sodipodi.sourceforge.net/DTD/sodipodi-0.dtd"
   xmlns:inkscape="http://www.inkscape.org/namespaces/inkscape"
   width="256"
   height="256"
   id="svg2989"
   version="1.1"
   inkscape:version="0.48.4 r9939"
   sodipodi:docname="HoleWalls.svg"
   inkscape:export-filename="C:\Users\Anthony\Desktop\Projects\SparkHouse\SpaceRace\Assets\Sprites\BGs\HoleWalls.png"
   inkscape:export-xdpi="360"
   inkscape:export-ydpi="360">
  <defs
     id="defs2991" />
  <sodipodi:namedview
     id="base"
     pagecolor="#ffffff"
     bordercolor="#666666"
     borderopacity="1.0"
     inkscape:pageopacity="0.0"
     inkscape:pageshadow="2"
     inkscape:zoom="2.3038142"
     inkscape:cx="81.147901"
     inkscape:cy="70.661012"
     inkscape:document-units="px"
     inkscape:current-layer="layer1"
     showgrid="false"
     units="px"
     inkscape:window-width="1600"
     inkscape:window-height="837"
     inkscape:window-x="-8"
     inkscape:window-y="-8"
     inkscape:window-maximized="1"
     inkscape:snap-global="false"
     inkscape:snap-bbox="true"
     inkscape:bbox-paths="true"
     inkscape:bbox-nodes="true"
     inkscape:snap-bbox-edge-midpoints="true"
     inkscape:snap-bbox-midpoints="true"
     inkscape:object-paths="true"
     inkscape:snap-intersection-paths="true"
     inkscape:object-nodes="true"
     inkscape:snap-smooth-nodes="true" />
  <metadata
     id="metadata2994">
    <rdf:RDF>
      <cc:Work
         rdf:about="">
        <dc:format>image/svg+xml</dc:format>
        <dc:type
           rdf:resource="http://purl.org/dc/dcmitype/StillImage" />
        <dc:title />
      </cc:Work>
    </rdf:RDF>
  </metadata>
  <g
     inkscape:label="Layer 1"
     inkscape:groupmode="layer"
     id="layer1"
     transform="translate(0,-796.3598)">
    <path
       style="fill:#272727;fill-opacity:1;fill-rule:nonzero;stroke:#ffffff;stroke-width:3.637;stroke-linecap:butt;stroke-linejoin:miter;stroke-miterlimit:4;stroke-opacity:1;stroke-dasharray:none;stroke-dashoffset:0;marker-start:none"
       d="m 4.6875,800.89105 0,235.34375 131.03125,0 0,-235.34375 -131.03125,0 z m 105.34375,21.78125 c 5.28114,0 9.5625,4.28136 9.5625,9.5625 0,5.28114 -4.28136,9.5625 -9.5625,9.5625 -5.28114,0 -9.5625,-4.28136 -9.5625,-9.5625 0,-5.28114 4.28136,-9.5625 9.5625,-9.5625 z m 0,43.40625 c 5.28114,0 9.5625,4.28136 9.5625,9.5625 0,5.28114 -4.28136,9.5625 -9.5625,9.5625 -5.28114,0 -9.5625,-4.28136 -9.5625,-9.5625 0,-5.28114 4.28136,-9.5625 9.5625,-9.5625 z m 0,40.84375 c 5.28114,0 9.5625,4.28136 9.5625,9.5625 0,5.28114 -4.28136,9.5625 -9.5625,9.5625 -5.28114,0 -9.5625,-4.28136 -9.5625,-9.5625 0,-5.28114 4.28136,-9.5625 9.5625,-9.5625 z m 0,40.84375 c 5.28114,0 9.5625,4.28136 9.5625,9.5625 0,5.28114 -4.28136,9.5625 -9.5625,9.5625 -5.28114,0 -9.5625,-4.28136 -9.5625,-9.5625 0,-5.28114 4.28136,-9.5625 9.5625,-9.5625 z m 0,43.40625 c 5.28114,0 9.5625,4.28136 9.5625,9.5625 0,5.2811 -4.28136,9.5625 -9.5625,9.5625 -5.28114,0 -9.5625,-4.2814 -9.5625,-9.5625 0,-5.28114 4.28136,-9.5625 9.5625,-9.5625 z"
       id="rect4406"
       inkscape:connector-curvature="0" />
  </g>
</svg>
